<?xml version="1.0" encoding="UTF-8" standalone="no"?>
<svg
   xmlns:dc="http://purl.org/dc/elements/1.1/"
   xmlns:cc="http://creativecommons.org/ns#"
   xmlns:rdf="http://www.w3.org/1999/02/22-rdf-syntax-ns#"
   xmlns:svg="http://www.w3.org/2000/svg"
   xmlns="http://www.w3.org/2000/svg"
   xmlns:sodipodi="http://sodipodi.sourceforge.net/DTD/sodipodi-0.dtd"
   xmlns:inkscape="http://www.inkscape.org/namespaces/inkscape"
   inkscape:version="1.0 (4035a4f, 2020-05-01)"
   sodipodi:docname="1200px-Star_background.svg.png"
   viewBox="0 0 1200 1697"
   height="1697"
   width="1200"
   id="svg3145"
   version="1.1">
  <metadata
     id="metadata3151">
    <rdf:RDF>
      <cc:Work
         rdf:about="">
        <dc:format>image/svg+xml</dc:format>
        <dc:type
           rdf:resource="http://purl.org/dc/dcmitype/StillImage" />
        <dc:title></dc:title>
      </cc:Work>
    </rdf:RDF>
  </metadata>
  <defs
     id="defs3149" />
  <sodipodi:namedview
     inkscape:current-layer="g3153"
     inkscape:window-maximized="0"
     inkscape:window-y="24"
     inkscape:window-x="0"
     inkscape:cy="659.423"
     inkscape:cx="628.66554"
     inkscape:zoom="0.34885091"
     showgrid="false"
     id="namedview3147"
     inkscape:window-height="776"
     inkscape:window-width="1280"
     inkscape:pageshadow="2"
     inkscape:pageopacity="0"
     guidetolerance="10"
     gridtolerance="10"
     objecttolerance="10"
     borderopacity="1"
     bordercolor="#666666"
     pagecolor="#ffffff" />
  <g
     id="g3153"
     inkscape:label="Image"
     inkscape:groupmode="layer">
    <path
       id="path3157"
       d="m 2113.0986,1060.2231 c -10.8322,6.3968 -20.7094,12.1726 -21.9493,12.8348 -1.9565,1.0453 -2.2572,4.304 -2.2779,24.6963 -0.015,12.9208 -0.2282,23.6451 -0.4774,23.8319 -0.2493,0.1869 -9.9781,-6.0675 -21.6194,-13.8983 -19.2369,-12.9403 -21.546,-14.1553 -25.3339,-13.33 -2.2923,0.4994 -14.2687,3.7614 -26.6143,7.2488 -16.765,4.7358 -22.1873,5.8137 -21.4227,4.2584 0.5632,-1.1452 4.8055,-11.3765 9.4273,-22.7362 l 8.4034,-20.654 -16.2015,-19.3187 c -8.9107,-10.6253 -15.9667,-19.2974 -15.6799,-19.2716 0.287,0.025 12.6388,0.2809 27.4484,0.5667 17.8405,0.3441 27.3913,0.022 28.3033,-0.9567 0.7569,-0.8118 8.0625,-9.4623 16.2345,-19.2235 l 14.8582,-17.74746 2.4487,6.53977 c 1.3468,3.59691 4.9309,13.94719 7.9648,23.00069 l 5.5158,16.4607 18.066,5.1023 c 9.9362,2.8062 21.416,6.0452 25.5104,7.1978 4.0946,1.1527 7.3651,2.4719 7.2677,2.9316 -0.098,0.4598 -9.0398,6.0698 -19.8722,12.4667 z m -76.6801,250.5552 c -7.0428,-1.1111 -17.3996,-2.7785 -23.0151,-3.7055 l -10.2104,-1.6855 -16.111,14.0291 c -8.8611,7.716 -16.4632,13.9931 -16.8937,13.949 -0.4304,-0.044 -1.8101,-7.0207 -3.066,-15.5037 -4.0044,-27.0476 -0.9659,-22.9427 -24.8531,-33.5731 l -20.8633,-9.2847 6.549,-2.8076 c 3.6019,-1.5441 13.2265,-5.5653 21.3878,-8.9359 l 14.8389,-6.1285 3.4248,-19.9453 c 1.8836,-10.9699 3.742,-19.9166 4.13,-19.8816 0.3879,0.036 7.6414,6.4345 16.1188,14.221 8.4774,7.7866 16.3934,14.2365 17.5909,14.3331 1.1976,0.097 11.5709,-1.1786 23.0518,-2.8337 11.4809,-1.6551 21.0526,-2.8596 21.2704,-2.6764 0.2177,0.183 -4.5637,8.2956 -10.6255,18.0277 l -11.0211,17.6949 9.5782,16.488 c 5.2679,9.0684 10.0158,17.3318 10.5508,18.3633 0.8171,1.5757 -1.0736,1.5526 -11.8322,-0.1446 z m 85.0539,-740.97411 c -3.0123,-0.59033 -10.5368,-1.97852 -16.721,-3.08489 l -11.2442,-2.01159 -12.2466,10.22435 c -6.7358,5.62337 -12.3992,10.03621 -12.5853,9.80626 -0.186,-0.22992 -1.0915,-6.52 -2.0122,-13.97796 -0.9205,-7.45794 -2.1286,-14.17563 -2.6847,-14.92819 -0.556,-0.75257 -7.3108,-4.23572 -15.0107,-7.74036 -7.6997,-3.50461 -13.9578,-6.65559 -13.9068,-7.00217 0.055,-0.34614 6.6434,-3.11603 14.6493,-6.15437 8.0063,-3.03832 14.9247,-5.94026 15.3747,-6.4487 0.4497,-0.50848 2.147,-6.95214 3.7717,-14.31927 1.6246,-7.36712 3.2374,-13.59534 3.5836,-13.84052 0.3465,-0.24515 5.606,4.30096 11.6879,10.10244 6.082,5.80151 11.6166,10.59861 12.299,10.6602 0.6824,0.0616 7.9704,-0.74442 16.1953,-1.79119 8.2252,-1.04677 15.2669,-1.56849 15.6481,-1.15942 0.3813,0.4091 -2.771,5.92466 -7.0051,12.25683 -4.2341,6.33218 -7.779,12.19791 -7.8774,13.03497 -0.099,0.83704 2.6723,6.57833 6.1575,12.7584 8.5328,15.13138 8.5005,14.90343 1.9269,13.61518 z m 28.8571,-450.08417 c -12.6926,15.23539 -23.1298,28.14105 -23.1938,28.67916 -0.064,0.5381 5.7663,15.44904 12.9561,33.13535 7.1898,17.68634 12.8764,32.25801 12.6366,32.38157 -0.2397,0.12359 -17.3388,-4.59324 -37.9979,-10.48168 l -37.5622,-10.70644 -19.6056,13.08691 c -10.783,7.19777 -25.1636,16.7169 -31.9571,21.15356 l -12.3519,8.0667 v -20.03717 c 0,-11.02045 0.02,-26.67427 0.053,-34.78617 l 0.06,-14.74903 -32.6412,-19.47973 c -17.9529,-10.7139 -32.6039,-19.76368 -32.5582,-20.11073 0.041,-0.34745 16.2664,-5.14975 36.0457,-10.6727 19.779,-5.52296 36.7845,-10.59627 37.7899,-11.27402 1.0052,-0.67776 6.6334,-15.452325 12.5068,-32.832359 5.8735,-17.380034 11.136,-31.952635 11.6945,-32.383408 0.5586,-0.430874 11.2969,11.600878 23.8632,26.737232 16.6448,20.048745 23.706,27.586557 26.0086,27.763538 1.7384,0.133958 19.8577,-0.140094 40.2653,-0.6083 20.4074,-0.468079 37.0972,-0.790856 37.0884,-0.717069 -0.014,0.07329 -10.4007,12.599396 -23.0933,27.834786 z m -123.6829,547.53297 -26.1793,20.48174 2.8057,18.27288 c 5.8383,38.02518 6.6078,43.51818 6.0903,43.47146 -0.2927,-0.0264 -13.8559,-6.71024 -30.1407,-14.85295 -16.285,-8.14272 -30.4988,-14.87345 -31.5865,-14.95717 -1.0879,-0.0838 -15.8609,5.68457 -32.8294,12.81846 -16.9684,7.1339 -31.0103,12.46584 -31.2041,11.84877 -0.3677,-1.16952 11.2054,-50.60705 13.1622,-56.22638 1.0081,-2.89495 -1.331,-5.4455 -23.5651,-25.69614 -20.5161,-18.68579 -24.2059,-22.60882 -21.8515,-23.23216 1.5582,-0.41248 17.1674,-2.07309 34.6872,-3.69027 17.5198,-1.61718 32.4063,-3.33111 33.0812,-3.80873 0.6749,-0.47764 8.359,-12.40329 17.076,-26.50142 8.7169,-14.09815 16.428,-25.72005 17.1357,-25.82644 0.7077,-0.10645 7.5413,11.98462 15.1861,26.86893 7.6444,14.88431 14.1674,27.34504 14.4952,27.69053 0.3277,0.34549 15.1632,2.90475 32.9676,5.68725 17.8045,2.78249 33.379,5.53402 34.6103,6.11449 1.7382,0.81953 -3.6124,5.63301 -23.9409,21.53715 z m -7.5167,-214.4395 c -1.7275,-0.15596 -26.7899,-3.88982 -55.6942,-8.2975 -46.7966,-7.13607 -52.7621,-7.82083 -54.4548,-6.25087 -1.0455,0.9697 -18.8599,16.86468 -39.5874,35.32216 l -37.6866,33.55904 -8.2179,-48.81992 -8.2179,-48.81995 -50.4236,-21.79227 c -27.7329,-11.98575 -50.3715,-22.07489 -50.3076,-22.42032 0.063,-0.34549 22.4011,-10.10931 49.6384,-21.69753 28.6085,-12.17146 50.1322,-22.09309 50.9657,-23.49326 0.7935,-1.3331 4.7797,-22.92141 8.8582,-47.97403 4.0788,-25.05261 7.8805,-45.87923 8.4487,-46.28135 0.5681,-0.40214 17.3055,13.86257 37.1941,31.69934 19.8885,17.83677 37.4009,33.50007 38.9164,34.80737 2.618,2.25849 5.5004,1.97054 57.8724,-5.78182 30.3144,-4.48729 55.3428,-7.94727 55.6183,-7.68886 0.2758,0.25843 -11.0814,19.51525 -25.2382,42.79294 -14.1565,23.2777 -25.8129,42.94161 -25.9027,43.69757 -0.09,0.75598 10.1953,18.53649 22.856,39.51226 12.6608,20.97577 24.2534,40.40413 25.7615,43.17415 l 2.7417,5.03639 z m -124.4486,554.38871 -38.3745,40.4941 1.721,5.3623 c 0.9466,2.9492 8.6312,26.2429 17.077,51.7638 8.4457,25.5208 14.9386,46.3638 14.4284,46.3179 -0.5098,-0.046 -26.428,-8.789 -57.5958,-19.4287 l -56.6685,-19.3449 -46.7375,27.5681 c -25.7057,15.1626 -48.7162,28.6811 -51.1346,30.0412 l -4.397,2.473 0.6691,-13.0257 c 0.3679,-7.1642 1.7027,-27.299 2.9658,-44.744 1.2634,-17.4451 2.4113,-35.8336 2.5512,-40.863 l 0.2542,-9.1448 -48.2189,-32.7303 c -45.213,-30.69 -47.9921,-32.80468 -44.5789,-33.92044 2.0021,-0.65442 28.8004,-6.8821 59.552,-13.83914 l 55.9116,-12.64944 20.0755,-48.69723 c 11.0416,-26.78365 20.6624,-49.45315 21.3793,-50.37699 0.9142,-1.17801 11.1715,11.7613 34.3463,43.32722 l 33.0428,45.00685 6.8168,0.26776 c 3.7491,0.14722 30.1406,0.94962 58.6474,1.78302 58.3844,1.70693 56.9846,1.63504 56.7871,2.92063 -0.079,0.51953 -17.4138,19.16698 -38.5198,41.43876 z m -14.8818,233.5624 c -16.488,18.8507 -16.9092,19.4867 -15.5642,23.4968 0.7605,2.267 4.7757,13.0251 8.9226,23.907 4.1471,10.8818 7.3923,19.8826 7.2117,20.0018 -0.1808,0.1194 -12.5283,-3.4876 -27.4391,-8.0149 l -27.1107,-8.2316 -22.7365,14.6582 c -18.0642,11.6461 -22.8674,14.1978 -23.3741,12.4175 -0.3507,-1.2324 -0.2879,-12.4278 0.14,-24.8787 l 0.7774,-22.6379 -22.9674,-14.3186 c -12.6322,-7.8752 -22.9238,-14.6763 -22.8703,-15.1135 0.054,-0.4372 12.2588,-3.9637 27.1238,-7.8368 l 27.0265,-7.0417 8.2305,-22.9778 c 4.5268,-12.6378 8.558,-23.3712 8.9583,-23.852 0.4002,-0.4809 8.2307,8.4469 17.4008,19.8397 14.9782,18.6082 17.0704,20.6843 20.5794,20.4212 7.6796,-0.576 48.4633,-0.4418 50.5304,0.1662 1.5327,0.4508 -2.5151,5.9052 -14.8388,19.9951 z m 14.268,-1098.67015 -17.2784,3.5133 -3.756,7.96158 c -2.0657,4.37887 -4.8427,10.59311 -6.171,13.80941 -1.3286,3.2163 -2.9249,5.80182 -3.5474,5.74561 -0.6226,-0.0561 -4.9551,-5.70106 -9.6281,-12.5441 l -8.4962,-12.4419 -18.0243,-0.88087 -18.0244,-0.88086 2.8732,-3.07556 c 1.5806,-1.69163 6.8301,-7.00952 11.6659,-11.81779 l 8.7927,-8.74213 -3.1712,-10.64734 c -5.0827,-17.064447 -5.3028,-17.96406 -4.5304,-18.510627 0.5745,-0.406587 22.0951,7.004847 30.0868,10.361387 0.8437,0.35431 8.1754,-3.07101 16.2924,-7.612042 l 14.7587,-8.25624 -1.3947,15.179902 -1.3946,15.17989 13.1459,9.24017 c 7.2302,5.08202 13.5811,9.61469 14.1129,10.07249 0.5317,0.45782 -6.8087,2.41339 -16.3118,4.34572 z m -150.4905,627.05113 -38.6853,12.69056 -2.6521,9.10629 c -1.4587,5.00846 -5.7205,20.32255 -9.4707,34.03123 -3.7501,13.70868 -7.2277,25.72301 -7.728,26.69842 -0.5958,1.16187 -9.9426,-8.14445 -27.0985,-26.98142 l -26.1887,-28.75508 -41.0891,2.75859 c -22.599,1.51724 -41.353,2.47537 -41.6756,2.1292 -0.3227,-0.34618 9.63,-14.18007 22.1171,-30.74196 l 22.7039,-30.11253 -15.7693,-33.58101 c -8.673,-18.46957 -15.5582,-33.73043 -15.3002,-33.913 0.258,-0.18259 18.3833,3.916 40.2785,9.10802 l 39.8093,9.44001 19.2851,-13.99062 c 10.6064,-7.69487 25.0244,-18.24863 32.0395,-23.45283 10.636,-7.89019 12.8788,-9.06673 13.5001,-7.08185 0.4099,1.30918 1.439,16.5222 2.2869,33.80669 0.8481,17.28451 1.689,32.63848 1.8686,34.11994 0.2516,2.07204 8.4369,7.07248 35.4726,21.67066 19.3304,10.4374 35.1088,19.28828 35.0636,19.66862 -0.045,0.38036 -17.4906,6.4023 -38.7677,13.38207 z M 1611.9669,1311.26 c -15.3937,-1.3421 -150.6498,-7.0068 -151.5227,-6.3459 -0.6207,0.4699 -21.8562,24.2682 -47.1901,52.885 -25.3338,28.6168 -46.2322,52.1661 -46.4408,52.3317 -0.2084,0.1658 -9.2346,-28.7686 -20.058,-64.2984 -10.8235,-35.5298 -19.9151,-64.8531 -20.2039,-65.1628 -0.2886,-0.3097 -32.803,-10.6177 -72.254,-22.9068 -39.4512,-12.2889 -71.9178,-22.5456 -72.1479,-22.7926 -0.2302,-0.2469 28.5569,-16.743 63.9712,-36.6577 56.2803,-31.6487 64.441,-36.6405 64.7971,-39.6361 0.2242,-1.885 1.2948,-30.5274 2.3792,-63.6499 1.0845,-33.1224 2.3468,-61.7658 2.8051,-63.6521 0.8086,-3.3272 2.5852,-2.1873 59.6251,38.2588 32.3355,22.9285 59.5054,41.756 60.3777,41.8392 0.8726,0.083 34.0763,-8.151 73.7865,-18.2981 39.7102,-10.1471 72.4735,-18.1561 72.8074,-17.7979 0.3338,0.3582 -11.7733,28.5398 -26.9047,62.6259 l -27.5117,61.9745 41.8923,53.3302 c 23.0409,29.3316 42.6227,54.4359 43.5152,55.7874 1.4352,2.1733 1.2362,2.4236 -1.723,2.1656 z m 85.7594,-919.21606 c -13.7672,-1.14755 -51.1189,-4.08879 -83.0036,-6.53606 l -57.9725,-4.44961 -51.9303,53.68555 c -28.5617,29.52705 -52.6625,54.19809 -53.5573,54.82451 -1.1004,0.77047 -7.3976,-21.57726 -19.4628,-69.07033 -9.8098,-38.61512 -17.9982,-70.41627 -18.1965,-70.66921 -0.1984,-0.25296 -34.6229,-12.58349 -76.4989,-27.40118 -41.8761,-14.81772 -76.2231,-27.29079 -76.3267,-27.71794 -0.1036,-0.42716 31.9233,-17.22104 71.1708,-37.31974 l 71.3594,-36.54309 1.2757,-17.37467 c 2.9717,-40.46748 10.241,-126.37338 10.7228,-126.714386 0.2877,-0.203642 28.3424,21.138296 62.3436,47.426566 34.0013,26.2884 62.1898,47.83027 62.641,47.87102 0.4513,0.0408 36.7245,-7.65902 80.6071,-17.11058 43.8825,-9.45153 79.9997,-16.95584 80.2603,-16.67614 0.2608,0.2797 -14.149,29.63557 -32.0217,65.23519 -17.8727,35.59966 -32.5908,65.58006 -32.7068,66.62315 -0.1093,1.04366 19.2853,29.16122 43.1139,62.48473 23.8286,33.32355 43.2997,60.7976 43.2692,61.05347 -0.031,0.25588 -11.3194,-0.47369 -25.0867,-1.62125 z m -29.1571,184.18191 c -8.9926,-0.31396 -16.8588,-0.35653 -17.4807,-0.0946 -0.6217,0.26194 -5.082,5.26909 -9.9117,11.12703 -4.8297,5.85792 -9.3481,10.88954 -10.0407,11.18138 -0.6929,0.29184 -3.3485,-5.67504 -5.9016,-13.25975 -2.6439,-7.85485 -5.6008,-14.12355 -6.87,-14.56445 -1.2255,-0.42574 -7.6612,-2.22479 -14.3015,-3.99789 -6.6403,-1.77309 -12.887,-3.71403 -13.8817,-4.31322 -1.2504,-0.75325 2.364,-3.58052 11.714,-9.16264 15.1446,-9.0415 14.3811,-7.63237 14.1514,-26.11654 -0.077,-6.25103 0.076,-11.51888 0.3402,-11.70634 0.2648,-0.18745 6.4736,3.6754 13.7973,8.58412 l 13.3158,8.92497 15.9856,-4.48782 c 8.7923,-2.46828 16.1738,-4.28618 16.4035,-4.03973 0.2297,0.24642 -1.8078,5.6872 -4.528,12.0906 -2.7198,6.40342 -5.0846,12.77932 -5.255,14.16867 -0.1666,1.40227 3.9565,7.45818 9.2759,13.60772 5.2722,6.09493 9.5748,11.42987 9.5616,11.85549 -0.015,0.42555 -7.3817,0.51695 -16.3744,0.20298 z m 6.9222,-562.447302 c -12.3064,9.424406 -22.4661,17.989083 -22.5771,19.032613 -0.1094,1.043658 1.348,12.95583 3.2426,26.471805 1.8944,13.515962 3.2273,24.754609 2.9622,24.974727 -0.265,0.220232 -12.2702,-5.660784 -26.6781,-13.068829 l -26.1962,-13.469205 -24.4006,9.854466 c -13.4202,5.419987 -26.037,10.430426 -28.0372,11.13445 l -3.6364,1.279971 1.9652,-7.936042 c 1.0807,-4.364859 4.0879,-16.15923 6.6827,-26.209515 l 4.7176,-18.273322 -20.8616,-19.462496 c -11.4738,-10.7044015 -20.6133,-19.63827 -20.3099,-19.853003 0.3034,-0.214744 13.7858,-1.495502 29.9607,-2.846047 16.1749,-1.350532 29.9374,-2.835873 30.5833,-3.300636 0.6456,-0.464777 6.5768,-9.264624 13.1802,-19.555109 6.6034,-10.290472 13.1807,-20.540653 14.6164,-22.778147 l 2.6102,-4.068299 11.857,23.891349 c 6.5212,13.140153 12.2554,24.346307 12.7426,24.902375 0.4871,0.556208 13.9672,3.27118 29.956,6.0334813 15.9887,2.7621615 29.2784,5.2670002 29.5331,5.5662024 0.2545,0.2990752 -9.6063,8.2547924 -21.9127,17.6792103 z M 1478.8855,913.80604 c -2.5528,-0.56106 -21.8538,-4.98526 -42.891,-9.83144 l -38.2496,-8.81144 -33.1988,24.89291 c -18.2592,13.69115 -33.5537,24.42966 -33.9874,23.86352 -0.4339,-0.56614 -1.7355,-16.63072 -2.8926,-35.69912 -1.1571,-19.06828 -2.2894,-35.89766 -2.5164,-37.39844 -0.3188,-2.10769 -8.8624,-7.21286 -37.532,-22.42701 -20.4156,-10.83391 -37.067,-20.03328 -37.003,-20.44305 0.063,-0.40978 18.3215,-6.85923 40.5722,-14.33237 29.5889,-9.93761 40.7097,-14.25052 41.4004,-16.05616 0.5194,-1.35782 4.6109,-16.21699 9.0923,-33.02033 4.4815,-16.80333 8.7967,-32.70433 9.5895,-35.33551 l 1.4415,-4.78399 28.0953,30.01341 28.0954,30.01341 43.3539,-3.11471 c 23.8446,-1.71308 43.6167,-2.8328 43.9379,-2.48824 0.3211,0.34455 -10.0672,14.92797 -23.085,32.40759 l -23.6688,31.78124 17.0751,35.63116 c 9.3915,19.59708 17.0613,35.7498 17.044,35.89486 -0.017,0.14506 -2.12,-0.19523 -4.6729,-0.75629 z M 1220.0266,626.39902 c -27.4282,18.54146 -58.9812,39.9569 -70.118,47.58982 l -20.2487,13.87806 4.947,74.22903 c 2.7209,40.82599 5.0557,75.49973 5.1886,77.05284 l 0.2416,2.82372 -5.6337,-3.1602 c -3.0985,-1.73805 -35.9204,-21.04704 -72.9375,-42.9089 -37.0171,-21.86182 -67.9051,-39.80305 -68.64006,-39.86941 -0.73497,-0.0663 -38.01664,12.3547 -82.84815,27.60232 -44.83153,15.24764 -81.67711,27.54574 -81.87908,27.32904 -0.20199,-0.21671 10.40122,-32.85037 23.56263,-72.51924 13.16144,-39.66885 24.03524,-73.01138 24.16403,-74.0945 0.12871,-1.08313 -24.65065,-28.3997 -55.06538,-60.70349 -30.41475,-32.30379 -55.25487,-59.10983 -55.20028,-59.56895 0.0547,-0.45914 37.97714,-1.87404 84.27233,-3.14427 46.29519,-1.2702 85.94605,-2.44642 88.11302,-2.61381 3.54647,-0.27395 8.68751,-6.76751 51.47737,-65.02035 26.14557,-35.59381 47.99317,-64.18733 48.55007,-63.54115 0.557,0.64618 14.2112,33.11089 30.3427,72.14383 16.1314,39.03292 29.4069,71.10046 29.501,71.26118 0.094,0.16076 38.0224,8.90531 84.2851,19.4324 46.2626,10.52705 84.9421,19.35389 85.9543,19.61516 1.012,0.26129 -20.601,15.64536 -48.0289,34.18687 z m 21.8835,-467.9704 c -11.5003,0.19364 -21.4601,0.58397 -22.1328,0.86738 -0.6727,0.28342 -6.439,7.61322 -12.814,16.28845 l -11.591,15.77314 -7.1963,-17.25106 c -3.9579,-9.48808 -7.3297,-17.6692 -7.4928,-18.1803 -0.1631,-0.51108 -8.9599,-2.9427 -19.5485,-5.40359 -10.5885,-2.4609 -20.1978,-4.83823 -21.354,-5.28298 -1.4358,-0.55235 3.4214,-4.47082 15.3251,-12.36332 l 17.4271,-11.55475 -0.7752,-14.60996 c -0.4264,-8.035617 -0.9262,-16.770035 -1.1108,-19.409963 l -0.3357,-4.799747 17.4871,10.498574 c 9.6179,5.774291 18.5288,10.578176 19.802,10.675246 1.2732,0.097 10.8619,-2.76461 21.3083,-6.359392 10.4464,-3.594783 19.0881,-6.39166 19.2037,-6.215213 0.1153,0.176422 -2.5754,8.401847 -5.9802,18.278745 l -6.1905,17.95799 13.5247,14.65069 c 7.4385,8.05787 13.4861,14.97406 13.4391,15.36933 -0.047,0.39524 -9.4948,0.87708 -20.9953,1.07073 z m -146.7695,981.64068 c -13.7515,2.1099 -28.1447,4.3475 -31.9847,4.9726 l -6.9819,1.1363 -12.7581,24.6881 c -7.0169,13.5784 -13.2495,25.0749 -13.8502,25.5477 -0.6006,0.4728 -7.966,-10.3783 -16.3675,-24.1136 l -15.27555,-24.9731 -32.40451,-3.2763 -32.40453,-3.2762 22.37457,-20.2148 c 12.30601,-11.118 22.41679,-20.5698 22.46839,-21.0038 0.0516,-0.4341 -2.69899,-12.8013 -6.11242,-27.4827 -3.41345,-14.6814 -5.6982,-26.8102 -5.07724,-26.9528 0.62096,-0.1427 13.82084,5.1469 29.3331,11.7545 l 28.20409,12.0139 25.1914,-12.4376 c 13.8554,-6.8407 26.7848,-13.1554 28.7321,-14.0326 l 3.5407,-1.595 -3.2783,20.6332 c -1.803,11.3483 -3.9902,24.0169 -4.8605,28.1526 l -1.5823,7.5192 24.0914,19.1881 c 13.2503,10.5534 24.0719,19.3519 24.0481,19.5521 -0.024,0.2003 -11.2945,2.0904 -25.0461,4.2002 z m -84.7502,-1084.392829 -21.03646,22.136847 8.63037,27.042772 c 4.74669,14.87353 8.34509,27.24465 7.99649,27.49139 -0.3486,0.24676 -14.01512,-4.28685 -30.3701,-10.07466 l -29.73631,-10.5233 -11.25599,6.45414 c -6.1908,3.54977 -18.38887,10.55867 -27.10683,15.57536 l -15.85083,9.12121 -0.43858,-4.84525 c -0.2412,-2.66491 0.27411,-11.15918 1.14518,-18.87615 0.87106,-7.71701 1.67874,-18.40857 1.79486,-23.759085 l 0.21108,-9.728104 -24.85589,-17.180049 C 855.84666,59.062493 844.70221,50.98914 844.75195,50.570803 c 0.0497,-0.418197 14.13842,-3.822967 31.30818,-7.565973 l 31.21774,-6.805361 11.14545,-25.95002 c 6.13001,-14.2725866 11.53022,-26.218306 12.00049,-26.54619 0.47028,-0.327884 8.46413,10.0901704 17.7641,23.1512132 l 16.90905,23.7473818 5.80295,0.495808 c 3.19161,0.272832 18.11621,0.931318 33.16579,1.463671 15.0495,0.53248 27.3624,0.970492 27.3619,0.973261 -10e-5,-1.2e-5 -9.4672,9.966793 -21.0373,22.142132 z M 939.34702,367.35548 c -11.69453,-2.12297 -78.48898,-12.72926 -82.37149,-13.07979 -3.06999,-0.27716 -9.14247,4.43124 -36.14288,28.02407 -17.84912,15.59647 -32.85923,28.31571 -33.35581,28.26498 -0.49655,-0.0512 -3.4293,-17.12438 -6.51713,-37.94143 -3.08783,-20.81706 -5.91645,-38.93428 -6.28582,-40.26049 -0.48035,-1.72465 -12.34111,-7.61059 -41.65081,-20.66939 -22.53857,-10.04194 -41.43796,-18.44838 -41.99865,-18.68096 -0.5607,-0.23259 14.36248,-6.79211 33.1626,-14.57671 18.80011,-7.78459 38.08936,-15.8735 42.86501,-17.97537 l 8.68299,-3.82156 5.87916,-33.33416 c 3.23353,-18.3338 6.6654,-36.44697 7.62639,-40.25153 l 1.74722,-6.91737 27.08903,24.83886 c 14.89897,13.6614 29.50825,26.97643 32.46507,29.58902 l 5.376,4.75012 46.11668,-6.441 c 25.36415,-3.54256 46.26098,-6.33252 46.43737,-6.19991 0.17636,0.13264 -9.75759,16.45317 -22.07551,36.26795 l -22.39619,36.02686 21.16154,36.1296 c 11.63885,19.87128 21.12501,36.43684 21.08036,36.81239 -0.0446,0.37553 -3.14745,0.12613 -6.89512,-0.55419 z m -186.07897,711.10982 -14.54576,9.9154 1.18625,16.0962 c 0.65244,8.853 0.97953,16.2343 0.72684,16.4028 -0.25265,0.1687 -7.09717,-3.6835 -15.21,-8.5603 -8.11284,-4.8768 -15.4749,-8.9323 -16.36013,-9.0122 -0.88524,-0.08 -8.79161,2.4206 -17.56973,5.5568 -8.77813,3.1363 -16.27745,5.362 -16.66517,4.946 -0.38771,-0.416 1.57888,-7.536 4.37023,-15.8222 l 5.0752,-15.066 -12.15361,-13.0945 c -6.68448,-7.2021 -11.51422,-13.0355 -10.73272,-12.9631 0.78156,0.072 9.42061,-0.076 19.19807,-0.3296 l 17.77717,-0.4614 9.48806,-13.1592 c 5.21843,-7.2376 9.94625,-13.3548 10.50627,-13.5938 0.56002,-0.2391 3.81925,6.3579 7.24274,14.6597 l 6.22453,15.0944 9.0734,2.1812 c 4.99036,1.1997 12.28966,2.863 16.22064,3.6962 3.93099,0.8333 7.94515,1.9838 8.92036,2.5566 1.20665,0.7088 -2.87399,4.2093 -12.77264,10.957 z m -29.51334,193.1626 c -7.78527,7.8572 -14.23604,14.9671 -14.33503,15.7997 -0.099,0.8325 2.19973,9.4577 5.10828,19.1671 2.90854,9.7092 5.01931,17.8436 4.69062,18.0762 -0.32871,0.2327 -8.98447,-2.6203 -19.23503,-6.3399 -10.25055,-3.7196 -19.4603,-6.9931 -20.46608,-7.2744 -1.00578,-0.2812 -10.39336,4.3456 -20.86127,10.2819 l -19.03255,10.7931 1.13203,-11.1321 c 0.6226,-6.1228 1.2115,-15.2358 1.30864,-20.2512 l 0.17663,-9.1188 -17.30566,-12.3415 -17.30566,-12.3414 22.30812,-4.6066 22.30813,-4.6067 6.80632,-15.6314 c 10.64715,-24.4521 8.16338,-23.9741 21.92849,-4.2209 l 11.94623,17.1431 6.14347,-0.013 c 8.98581,-0.013 38.93978,1.4807 38.88566,1.9358 -0.0255,0.2142 -6.41605,6.8179 -14.20134,14.6751 z m -34.9787,-687.12508 c -4.49595,1.31127 -32.12315,9.2967 -61.39381,17.74539 l -53.21936,15.36126 -17.74913,53.49956 c -9.76201,29.42476 -17.94498,53.64177 -18.18439,53.81559 -0.23939,0.1738 -17.35597,-19.66193 -38.03684,-44.07942 -20.68089,-24.4175 -38.30958,-44.69919 -39.17487,-45.07043 -0.86529,-0.37125 -30.02849,0.15163 -64.80711,1.16193 -34.77862,1.01031 -63.33801,1.72722 -63.46528,1.59313 -0.12725,-0.13408 16.66039,-20.7494 37.30597,-45.81177 l 37.5374,-45.56797 -21.67544,-52.41902 C 373.99167,465.90059 364.4741,442.14473 364.763,441.94026 c 0.28889,-0.2045 27.9157,7.21305 61.3929,16.48343 l 60.86765,16.8552 32.72309,-22.2086 c 17.9977,-12.21474 40.84081,-27.73972 50.76249,-34.49994 9.92166,-6.76024 18.22185,-12.04482 18.44484,-11.74354 0.22299,0.30129 0.53351,25.52978 0.69003,56.0633 0.1565,30.53354 0.45933,55.70302 0.67294,55.93218 0.21362,0.22918 23.44182,14.04849 51.61823,30.7096 28.17641,16.66111 52.08157,30.80905 53.12257,31.43986 1.31085,0.79435 -0.6203,1.87989 -6.28173,3.53107 z m 22.92064,-656.656921 c -0.63652,0.2692 -7.00246,6.507912 -14.14653,13.863878 l -12.98922,13.374421 5.84938,18.944243 c 3.21714,10.419324 5.83826,19.0377321 5.82469,19.151824 -0.0131,0.1136854 -9.55766,-3.209688 -21.2091,-7.386376 l -21.18443,-7.593969 -18.5832,10.538294 c -10.22077,5.7960632 -18.97634,10.50280396 -19.45685,10.45941297 -0.48049,-0.0434418 0.1678,-8.83822077 1.44069,-19.54418497 l 2.31431,-19.465202 -17.70013,-12.428863 c -9.73507,-6.835871 -17.03035,-12.711031 -16.2117,-13.055987 0.81863,-0.344829 10.52609,-2.473515 21.57212,-4.730367 11.04604,-2.256852 20.31678,-4.250894 20.60164,-4.431165 0.28487,-0.180258 4.02017,-8.187254 8.30069,-17.793404 4.28052,-9.606154 8.0894,-17.682744 8.46421,-17.947974 0.60037,-0.42495 9.7893,11.934562 20.38403,27.417269 l 3.56562,5.210628 22.32204,1.105683 c 15.59262,0.772425 22.27335,1.515166 22.16054,2.464026 -0.0888,0.747084 -0.68229,1.578614 -1.3188,1.847813 z M 552.50232,966.57753 c -19.81886,25.25175 -36.12725,46.61307 -36.24088,47.46947 -0.11355,0.8565 10.23067,24.9869 22.98732,53.6233 12.75665,28.6365 22.9802,52.194 22.71899,52.3501 -0.26122,0.1561 -28.50487,-6.8838 -62.76371,-15.6443 l -62.28879,-15.9283 -51.12819,36.1745 c -28.1205,19.8961 -51.02645,35.3253 -50.90206,34.2871 0.63056,-5.2665 -3.50221,-110.9632 -4.38719,-112.1946 -0.56772,-0.7899 -25.17014,-15.0253 -54.67203,-31.6341 -29.50188,-16.60876 -53.23595,-30.50238 -52.74235,-30.87469 0.49359,-0.3723 28.04843,-9.15097 61.23293,-19.50803 l 60.3355,-18.83113 16.27356,-53.36736 c 8.95047,-29.35205 16.55782,-54.18094 16.90525,-55.17553 0.36013,-1.03091 17.83761,17.65439 40.65641,43.46593 31.43385,35.55661 40.66598,45.21212 43.01224,44.98487 7.99248,-0.7742 125.19456,-5.93628 126.05138,-5.55191 0.54225,0.24338 -15.22952,21.10293 -35.04838,46.35468 z M 531.74457,209.33682 c -25.41443,-1.77707 -51.76788,-3.36889 -58.5632,-3.53735 l -12.35513,-0.30629 -35.3971,38.32889 c -19.46841,21.08089 -36.05769,38.33851 -36.86511,38.35027 -0.80741,0.0114 -7.60494,-21.82283 -15.10568,-48.52129 -7.5007,-26.69849 -13.7946,-48.64115 -13.98642,-48.76146 -0.19181,-0.12042 -22.8781,-7.63409 -50.41396,-16.69723 -27.53585,-9.06316 -52.13979,-17.17202 -54.67546,-18.01969 l -4.61026,-1.54125 48.95517,-26.31174 c 26.92535,-14.47145 49.46622,-26.638192 50.09082,-27.037183 0.62461,-0.398991 2.40315,-23.162721 3.9523,-50.586079 1.54916,-27.423371 3.22827,-50.1520171 3.73134,-50.5080874 0.50309,-0.356083 20.15255,13.5675716 43.66547,30.9414194 23.51293,17.373848 43.76814,31.910756 45.01155,32.304349 1.24344,0.393465 26.95449,-5.134516 57.13569,-12.2844 30.18119,-7.150012 55.11727,-12.739917 55.41351,-12.422131 0.29625,0.317912 -9.33249,21.530186 -21.39715,47.138464 l -21.93577,46.560578 31.47967,41.97152 c 17.31381,23.08433 31.61426,42.46612 31.77873,43.07065 0.16447,0.60451 -20.49458,-0.35486 -45.90901,-2.13196 z M 280.24408,304.9117 c -10.41076,6.50903 -19.74872,12.55825 -20.751,13.44269 -1.35078,1.19197 -1.6762,6.41304 -1.25753,20.176 0.31066,10.21234 0.25027,19.73916 -0.13425,21.17072 -0.62845,2.33994 -2.62344,1.35836 -19.75085,-9.71788 -10.47848,-6.77639 -19.79367,-12.40871 -20.70041,-12.51628 -0.90673,-0.10758 -11.75162,2.92562 -24.09971,6.74037 -12.34811,3.81475 -22.64905,6.72354 -22.89098,6.46398 -0.24193,-0.25954 3.07903,-9.70182 7.37991,-20.98281 l 7.8198,-20.51091 -15.20572,-17.41969 c -8.36313,-9.58082 -14.96994,-17.44004 -14.68175,-17.46494 0.28816,-0.0249 11.68014,-0.008 25.31552,0.0372 l 24.79155,0.0824 13.91959,-17.52841 c 7.65574,-9.64064 14.31589,-17.50949 14.80033,-17.48636 0.48443,0.0231 4.243,9.22508 8.35237,20.44876 l 7.47162,20.4067 7.29846,1.9878 c 4.01415,1.0933 14.93792,3.97866 24.27505,6.4119 l 16.97657,4.4241 z m -52.93323,-422.71245 -13.34161,15.84086 2.55454,6.810255 c 1.40502,3.745687 4.9382,12.478885 7.85151,19.407343 2.91332,6.928345 4.77198,12.683659 4.13037,12.789697 -0.64159,0.105937 -10.92916,-2.59411 -22.86125,-6.000163 l -21.69471,-6.19278 -18.86046,12.774885 -18.86048,12.775001 -0.32045,-4.172382 c -0.17624,-2.294895 -0.23791,-11.70985 -0.13703,-20.922026 l 0.18341,-16.749671 -19.59081,-11.714589 c -10.77494,-6.44307 -19.33882,-11.89297 -19.03081,-12.11099 0.30801,-0.21802 10.38997,-3.20668 22.40438,-6.64164 l 21.84437,-6.2451 6.70445,-19.41236 c 3.75196,-10.8636 7.31029,-19.14555 8.08016,-18.80633 0.99218,0.43706 24.16271,27.27825 27.12397,31.421 0.16632,0.23263 10.55468,0.16486 23.08524,-0.15058 26.20577,-0.65985 24.61236,-0.69402 24.30988,0.52198 -0.12827,0.51521 -6.23674,8.06518 -13.57464,16.77759 z m -93.23225,695.86442 -17.36215,9.73244 0.0491,6.58287 c 0.0271,3.62058 -0.11661,11.62625 -0.3192,17.79036 l -0.3684,11.20749 -15.9894,-11.24637 -15.989395,-11.2464 -18.917245,4.76414 c -10.404477,2.62028 -19.120823,4.54572 -19.369648,4.27877 -0.404985,-0.43449 10.896151,-27.03385 13.075664,-30.77607 0.485405,-0.8334 -4.274481,-8.02678 -10.577489,-15.98528 l -11.460007,-14.46999 4.533363,-0.37308 c 2.493335,-0.20517 10.167562,0.0784 17.053814,0.63004 6.886252,0.55173 14.14628,0.76088 16.133395,0.46483 2.545709,-0.37925 7.087105,-4.47762 15.374326,-13.8745 6.468775,-7.33493 12.045192,-13.03177 12.392062,-12.65966 0.34685,0.37214 2.86428,7.95585 5.5943,16.85269 l 4.96364,16.17608 19.27268,6.2096 19.27266,6.20959 z m -82.301869,588.24023 -9.206212,11.0448 5.161461,11.8703 c 2.838774,6.5286 5.10273,12.3639 5.030984,12.9673 -0.07172,0.6035 -6.66489,-0.7957 -14.651438,-3.1093 l -14.521019,-4.2063 -4.747918,2.9563 c -2.611349,1.626 -8.410118,5.4108 -12.8861512,8.4108 l -8.1382183,5.4545 -0.1457965,-6.179 c -0.080172,-3.3985 -0.1576765,-9.6599 -0.1721803,-13.9139 l -0.026384,-7.7348 -11.1534877,-6.5582 c -6.134418,-3.6069 -11.919616,-7.198 -12.856011,-7.9799 -1.240713,-1.0361 2.372377,-2.589 13.32028,-5.7247 l 15.022808,-4.3029 4.1563072,-12.9358 c 2.2859522,-7.1148 4.5397188,-12.8972 5.0083468,-12.8498 0.468627,0.047 4.858512,5.0023 9.755287,11.011 7.484423,9.1839 9.4997,10.894 12.646146,10.7311 11.541783,-0.5971 26.849027,-0.8538 27.201565,-0.4562 0.224307,0.2529 -3.734952,5.43 -8.798369,11.5047 z M 74.088138,762.47938 c -20.212941,14.68068 -42.894845,31.36999 -50.404223,37.08736 l -13.653427,10.39524 6.227574,56.61673 c 3.425167,31.13926 6.052404,56.77424 5.83833,56.96668 -0.214074,0.19244 -25.2143776,-13.12692 -55.556227,-29.5986 -30.341831,-16.47156 -55.747645,-30.00075 -56.457328,-30.0649 -0.709683,-0.0635 -28.152727,10.04788 -60.984527,22.47097 -32.8318,12.42321 -59.83973,22.43705 -60.01762,22.25312 -0.29776,-0.30778 28.17994,-100.56522 30.66373,-107.95355 0.98783,-2.93842 -3.1884,-7.47305 -42.92919,-46.61331 l -44.02346,-43.35823 66.20464,-4.05553 c 36.41257,-2.23055 66.26524,-4.15196 66.33926,-4.2698 4.85194,-7.72376 65.505132,-96.79319 66.322697,-97.39513 0.661696,-0.48718 12.275867,22.97322 25.809284,52.13419 l 24.606207,53.01998 62.970624,12.23323 c 34.633833,6.72827 63.605958,12.50461 64.382518,12.8363 0.77655,0.33168 -15.125935,12.61455 -35.338862,27.29525 z M 142.98229,171.0125 c -2.00472,0.56844 -19.61178,4.98177 -39.12679,9.80736 l -35.481848,8.77386 -12.705254,32.90639 C 48.680502,240.59863 42.328254,255.19971 41.552291,254.94696 40.776328,254.6942 30.484398,241.94778 18.681312,226.62157 -0.14229171,202.17923 -3.2928773,198.70931 -6.9629921,198.37796 c -5.2588329,-0.47479 -67.7116179,-1.22873 -73.4036719,-0.88615 -3.536344,0.21284 -4.017492,-0.0851 -2.988944,-1.85113 0.674232,-1.15765 11.842224,-13.88804 24.817804,-28.28974 l 23.591944,-26.18493 -12.027859,-33.44416 c -6.615314,-18.394271 -11.819397,-33.60741 -11.564625,-33.806925 0.254772,-0.199527 16.989866,4.903004 37.189119,11.33897 20.1992439,6.435953 37.292036,11.75286 37.983979,11.81533 0.691942,0.06249 15.831452,-8.909582 33.643358,-19.937892 17.81192,-11.028322 32.754455,-20.023175 33.205663,-19.988587 0.451237,0.0343 0.141248,15.661136 -0.688824,34.725645 -0.945009,21.704349 -0.945301,35.231489 -8.01e-4,36.184109 0.829634,0.83675 14.376665,9.76813 30.10452,19.84748 37.17583,23.82451 34.587,21.83556 30.08362,23.11252 z m -239.183788,963.473 c -9.760782,-0.4214 -26.155192,-1.5255 -36.431992,-2.4533 l -18.68508,-1.687 -23.3446,24.9673 c -21.30783,22.7889 -23.42646,24.6867 -24.28274,21.7518 -0.51599,-1.7684 -4.28958,-15.5857 -8.38579,-30.7052 -4.09619,-15.1195 -7.62879,-27.7344 -7.85022,-28.0333 -0.22143,-0.2987 -15.15567,-5.5262 -33.1872,-11.6166 -18.03153,-6.0904 -33.38124,-11.3084 -34.11048,-11.5958 -0.72923,-0.2873 12.86718,-8.0443 30.21427,-17.2377 l 31.54015,-16.7153 0.78837,-13.4848 c 2.37098,-40.5551 3.21443,-49.66691 4.543,-49.07752 0.76564,0.33953 13.36206,9.57182 27.99204,20.51612 l 26.60002,19.8987 34.6582,-8.0158 c 19.06201,-4.4087 34.899569,-7.7569 35.194558,-7.4403 0.295004,0.3164 -5.674502,13.5719 -13.265538,29.4566 l -13.80191,28.8811 18.047688,24.4847 c 9.926229,13.4667 18.827656,25.4721 19.78093,26.6789 1.567917,1.9847 0.04067,2.1209 -16.013676,1.4274 z M 7.4255974,-38.263047 l -13.6355847,10.472128 1.958515,15.694733 c 1.0771767,8.6321392 1.708116,15.871994 1.4020921,16.0885425 -0.3060385,0.2166627 -7.5524378,-3.32224317 -16.1030948,-7.8642608 l -15.546681,-8.2580567 -16.955188,6.7031325 c -9.325332,3.6866716 -17.127513,6.6875597 -17.338162,6.6685444 -0.210648,-0.019053 1.115062,-5.5022973 2.946002,-12.1850429 5.660436,-20.660029 5.958763,-19.398083 -7.608632,-32.184934 -8.20995,-7.737543 -11.234141,-11.402113 -9.824542,-11.904551 1.120062,-0.399335 8.786825,-1.128115 17.03724,-1.619401 8.250387,-0.491286 15.728643,-1.199921 16.61829,-1.574727 0.889677,-0.374807 5.339515,-6.358965 9.888549,-13.298068 4.549019,-6.939103 8.812377,-13.016724 9.474073,-13.505584 0.661711,-0.489 4.32359,5.694216 8.137519,13.740564 7.800013,16.455955 5.930052,15.194505 27.7014352,18.686781 6.7228758,1.078436 12.9569938,2.38987 13.8535938,2.914322 1.031989,0.603726 -3.373245,4.796292 -12.0054246,11.425878 z M -125.75619,508.20963 c -15.91712,4.31553 -23.31564,6.94835 -24.27519,8.63854 -0.75913,1.33713 -4.19799,10.653 -7.64191,20.70196 -3.44393,10.04895 -6.67577,18.23343 -7.18186,18.18774 -0.8009,-0.0723 -16.43239,-18.61189 -25.78007,-30.57624 l -3.19968,-4.09534 -24.69615,0.50406 c -13.58287,0.27723 -24.89444,0.2908 -25.13681,0.0301 -0.24238,-0.26067 6.01644,-8.10398 13.90849,-17.42958 7.89205,-9.3256 14.40576,-17.43165 14.47494,-18.01344 0.0691,-0.58179 -3.38684,-9.91666 -7.68004,-20.74417 -4.29321,-10.82749 -7.59041,-19.83883 -7.32711,-20.02518 0.26328,-0.18636 10.80606,2.62913 23.42839,6.25663 12.62234,3.62748 23.23385,6.62109 23.58113,6.65245 0.34728,0.0314 9.3869,-5.73111 20.08808,-12.80547 12.30908,-8.13735 19.73253,-12.27567 20.20765,-11.26513 0.41304,0.87855 0.5498,10.3006 0.30394,20.93788 -0.24588,10.63728 -0.11516,19.90171 0.29041,20.58762 0.40561,0.68593 9.50636,6.53305 20.2239,12.99361 10.71753,6.46057 19.44603,12.08625 19.39666,12.50151 -0.0494,0.41525 -10.39251,3.54833 -22.98477,6.96241 z"
       style="fill:#ffff00;stroke-width:1.36073" />
  </g>
</svg>
