<?xml version="1.0" encoding="UTF-8" standalone="no"?>
<svg
   xmlns:dc="http://purl.org/dc/elements/1.1/"
   xmlns:cc="http://creativecommons.org/ns#"
   xmlns:rdf="http://www.w3.org/1999/02/22-rdf-syntax-ns#"
   xmlns:svg="http://www.w3.org/2000/svg"
   xmlns="http://www.w3.org/2000/svg"
   xmlns:sodipodi="http://sodipodi.sourceforge.net/DTD/sodipodi-0.dtd"
   xmlns:inkscape="http://www.inkscape.org/namespaces/inkscape"
   inkscape:version="1.0 (4035a4f, 2020-05-01)"
   sodipodi:docname="68747470733a2f2f692e696d6775722e636f6d2f526d42714a4f432e706e67.png"
   viewBox="0 0 1920 1080"
   height="1080"
   width="1920"
   id="svg3261"
   version="1.1">
  <metadata
     id="metadata3267">
    <rdf:RDF>
      <cc:Work
         rdf:about="">
        <dc:format>image/svg+xml</dc:format>
        <dc:type
           rdf:resource="http://purl.org/dc/dcmitype/StillImage" />
        <dc:title></dc:title>
      </cc:Work>
    </rdf:RDF>
  </metadata>
  <defs
     id="defs3265" />
  <sodipodi:namedview
     inkscape:current-layer="g3269"
     inkscape:window-maximized="0"
     inkscape:window-y="24"
     inkscape:window-x="0"
     inkscape:cy="540"
     inkscape:cx="960"
     inkscape:zoom="0.54814815"
     showgrid="false"
     id="namedview3263"
     inkscape:window-height="776"
     inkscape:window-width="1280"
     inkscape:pageshadow="2"
     inkscape:pageopacity="0"
     guidetolerance="10"
     gridtolerance="10"
     objecttolerance="10"
     borderopacity="1"
     bordercolor="#666666"
     pagecolor="#ffffff" />
  <g
     id="g3269"
     inkscape:label="Image"
     inkscape:groupmode="layer">
    <path
       id="path3273"
       d="m 295.61819,1069.8621 c 0.34546,-0.559 1.04702,-0.7574 1.55902,-0.441 1.38704,0.8572 1.12841,1.4573 -0.62812,1.4573 -0.85746,0 -1.27636,-0.4573 -0.9309,-1.0163 z m 28.98992,0.016 c 0.33992,-0.55 1.26648,-1 2.05902,-1 0.79254,0 1.44098,0.45 1.44098,1 0,0.55 -0.92656,1 -2.05902,1 -1.13246,0 -1.7809,-0.45 -1.44098,-1 z m -7.05965,-16.1879 c -0.95729,-3.0162 2.87783,-6.2474 5.65251,-4.7624 3.64855,1.9526 1.68878,6.9503 -2.72547,6.9503 -1.41828,0 -2.4859,-0.798 -2.92704,-2.1879 z m 1107.00574,0.1008 c -0.945,-1.5291 1.1059,-3.2988 2.9867,-2.5771 0.862,0.3308 1.5672,1.2906 1.5672,2.1328 0,1.7477 -3.5351,2.0926 -4.5539,0.4443 z m -106.3418,-4.8481 c -1.7027,-1.0527 -0.7354,-4.0648 1.3053,-4.0648 2.1956,0 3.0163,2.0028 1.4587,3.5598 -0.8593,0.8591 -1.8875,1.0469 -2.764,0.505 z m -919.13783,-5.0858 c -1.27677,-0.7894 -1.26132,-1.1119 0.11944,-2.493 1.3613,-1.3617 1.75252,-1.3856 2.76233,-0.1689 1.5647,1.8854 -0.72173,3.9973 -2.88177,2.6619 z m -92.96646,-3.979 c 0,-1.5061 0.52215,-2.0461 1.75,-1.8096 0.9625,0.1853 1.75,0.9997 1.75,1.8096 0,0.8099 -0.7875,1.6243 -1.75,1.8096 -1.22785,0.2365 -1.75,-0.3035 -1.75,-1.8096 z m 47.17288,-0.6592 c 0.42145,-2.1884 3.32712,-2.498 3.32712,-0.3545 0,0.8175 -0.82837,1.6458 -1.84081,1.8408 -1.3364,0.2574 -1.74367,-0.1499 -1.48631,-1.4863 z m 110.32712,-2.3408 c -0.83704,-1.3544 0.29243,-3 2.05902,-3 0.79254,0 1.44098,0.9 1.44098,2 0,2.0703 -2.41251,2.7596 -3.5,1 z m 819.49999,-1.5 c 0,-1.03 0.6554,-1.5204 1.75,-1.3096 2.1078,0.4059 1.9749,2.1807 -0.1972,2.6329 -0.906,0.1887 -1.5528,-0.3626 -1.5528,-1.3233 z m 22.9155,-4.1018 c -0.8885,-1.0706 -0.9275,-1.7862 -0.1403,-2.5734 1.3808,-1.3808 4.2248,-0.3463 4.2248,1.5368 0,2.0838 -2.656,2.7578 -4.0845,1.0366 z m -923.72512,-7.1482 c 0.18536,-0.9625 0.99969,-1.75 1.80963,-1.75 0.80994,0 1.62427,0.7875 1.80963,1.75 0.23646,1.2278 -0.30348,1.75 -1.80963,1.75 -1.50615,0 -2.04609,-0.5222 -1.80963,-1.75 z m 858.43342,-2.7879 c -0.3419,-0.8911 0.062,-1.788 0.9603,-2.1327 1.8673,-0.7166 3.9107,1.061 2.9698,2.5835 -0.9813,1.5877 -3.2476,1.3278 -3.9301,-0.4508 z m -768.30089,-1.063 c -0.70746,-1.8436 1.71096,-3.7652 3.05152,-2.4247 1.0915,1.0915 0.0897,4.0256 -1.37442,4.0256 -0.58452,0 -1.33922,-0.7204 -1.6771,-1.6009 z m 389.6771,-1.8991 c 0,-0.825 0.45,-1.5 1,-1.5 0.55,0 1,0.675 1,1.5 0,0.825 -0.45,1.5 -1,1.5 -0.55,0 -1,-0.675 -1,-1.5 z m -856.0000019,-4 c 0,-0.825 0.675,-1.5 1.5,-1.5 0.825,0 1.5,0.675 1.5,1.5 0,0.825 -0.675,1.5 -1.5,1.5 -0.825,0 -1.5,-0.675 -1.5,-1.5 z M 764.80196,1001.2389 c -0.79893,-0.7989 0.10419,-2.36052 1.36517,-2.36052 0.51754,0 0.94098,0.675 0.94098,1.50002 0,1.5464 -1.17996,1.9867 -2.30615,0.8605 z m 59.84886,-0.2914 c -0.73955,-1.19662 1.14162,-2.38222 2.4736,-1.55902 1.11836,0.69122 0.38417,2.48992 -1.01631,2.48992 -0.48508,0 -1.14086,-0.4189 -1.45729,-0.9309 z M 30.603743,995.87128 c -0.34232,-0.5538 0.10053,-1.2844 0.984111,-1.6235 1.914649,-0.7347 2.981717,0.075 2.061373,1.5641 -0.830379,1.3435 -2.234909,1.371 -3.045484,0.059 z m 696.198217,0.3676 c -0.79893,-0.7989 0.10419,-2.3605 1.36517,-2.3605 0.51754,0 0.94098,0.675 0.94098,1.5 0,1.5464 -1.17996,1.9867 -2.30615,0.8605 z m 166.49782,-2.4355 c 0.19708,-0.5913 0.78583,-1.075 1.30833,-1.075 0.5225,0 1.11125,0.4837 1.30833,1.075 0.19709,0.5913 -0.39166,1.075 -1.30833,1.075 -0.91667,0 -1.50542,-0.4837 -1.30833,-1.075 z m 265.80832,-0.9983 c 0,-1.4311 0.5385,-1.96964 1.7385,-1.7385 2.6068,0.502 2.8975,3.8118 0.3348,3.8118 -1.4311,0 -2.0733,-0.6422 -2.0733,-2.0733 z m -392.77082,-3.1142 c 0.61807,-1.85422 2.77083,-2.16176 2.77083,-0.39583 0,0.87083 -0.7125,1.58333 -1.58333,1.58333 -0.87084,0 -1.40521,-0.53437 -1.1875,-1.1875 z m 57.77083,-2.3125 c 0,-0.825 0.45,-1.5 1,-1.5 0.55,0 1,0.675 1,1.5 0,0.825 -0.45,1.5 -1,1.5 -0.55,0 -1,-0.675 -1,-1.5 z M 20.584268,984.83981 c -1.007965,-1.63093 1.231018,-3.65425 2.566222,-2.31905 0.723175,0.72318 0.597324,1.41175 -0.410973,2.24856 -1.074219,0.89152 -1.636456,0.90991 -2.155249,0.0705 z M 816.65082,967.94748 c -0.73955,-1.1966 1.14162,-2.38223 2.4736,-1.55902 1.11836,0.69118 0.38417,2.48992 -1.01631,2.48992 -0.48508,0 -1.14086,-0.41891 -1.45729,-0.9309 z m -366.06978,-7.1129 c -0.35481,-0.5741 -0.0967,-1.70465 0.57366,-2.51234 0.93116,-1.12197 1.54435,-1.19832 2.59842,-0.32351 1.0435,0.86602 1.10316,1.47816 0.24488,2.51233 -1.35601,1.63388 -2.53795,1.74579 -3.41696,0.32352 z m 344.22092,-1.59568 c -0.79893,-0.79893 0.10419,-2.36052 1.36517,-2.36052 0.51754,0 0.94098,0.675 0.94098,1.5 0,1.54641 -1.17996,1.9867 -2.30615,0.86052 z m -96.69385,-8.36052 c 0,-0.55 0.45,-1 1,-1 0.55,0 1,0.45 1,1 0,0.55 -0.45,1 -1,1 -0.55,0 -1,-0.45 -1,-1 z m 126,-0.5 c 0,-0.91667 0.48375,-1.50542 1.075,-1.30833 0.59125,0.19708 1.075,0.78583 1.075,1.30833 0,0.5225 -0.48375,1.11125 -1.075,1.30833 -0.59125,0.19709 -1.075,-0.39166 -1.075,-1.30833 z m 1066.06059,-1.43942 c -2.4661,-2.46606 -2.6095,-4.36882 -0.4892,-6.48915 3.6092,-3.60921 8.7606,-0.81886 8.2573,4.47271 -0.2765,2.90734 -0.7556,3.50515 -3.0181,3.76644 -1.7007,0.19639 -3.447,-0.44701 -4.75,-1.75 z M 561.10811,946.4517 c 0,-0.92763 0.855,-1.57332 2.08333,-1.57332 2.43705,0 2.09257,2.33677 -0.4162,2.82332 -0.98676,0.19138 -1.66713,-0.31876 -1.66713,-1.25 z m 229.69385,0.7872 c -0.79893,-0.79893 0.10419,-2.36052 1.36517,-2.36052 0.51754,0 0.94098,0.675 0.94098,1.5 0,1.54641 -1.17996,1.9867 -2.30615,0.86052 z m 1038.24464,-1.422 c -2.4226,-2.42262 -2.2255,-4.678 0.5709,-6.53123 4.2228,-2.79862 9.6783,3.25178 6.4449,7.14775 -1.6985,2.04661 -4.6084,1.79091 -7.0158,-0.61652 z m -601.9385,-0.43852 c 0,-0.825 0.675,-1.5 1.5,-1.5 0.825,0 1.5,0.675 1.5,1.5 0,0.825 -0.675,1.5 -1.5,1.5 -0.825,0 -1.5,-0.675 -1.5,-1.5 z m -435.99999,-4 c 0,-0.91667 0.48375,-1.50542 1.075,-1.30833 0.59125,0.19708 1.075,0.78583 1.075,1.30833 0,0.5225 -0.48375,1.11125 -1.075,1.30833 -0.59125,0.19709 -1.075,-0.39166 -1.075,-1.30833 z m 220.99999,-25 c 0,-0.91667 0.4838,-1.50542 1.075,-1.30833 0.5913,0.19708 1.075,0.78583 1.075,1.30833 0,0.5225 -0.4837,1.11125 -1.075,1.30833 -0.5912,0.19709 -1.075,-0.39166 -1.075,-1.30833 z m -226.77082,-4.6875 c 0.61807,-1.85422 2.77083,-2.16176 2.77083,-0.39583 0,0.87083 -0.7125,1.58333 -1.58333,1.58333 -0.87084,0 -1.40521,-0.53437 -1.1875,-1.1875 z m -27.22917,-10.3125 c 0,-0.91667 0.48375,-1.50542 1.075,-1.30833 0.59125,0.19708 1.075,0.78583 1.075,1.30833 0,0.5225 -0.48375,1.11125 -1.075,1.30833 -0.59125,0.19709 -1.075,-0.39166 -1.075,-1.30833 z m -608.5,-5.5 c -0.39915,-0.64585 -0.27574,-1.62426 0.27426,-2.17426 0.66667,-0.66667 1.24192,-0.60858 1.72574,0.17426 0.39915,0.64585 0.27574,1.62426 -0.27426,2.17426 -0.66667,0.66667 -1.24192,0.60858 -1.72574,-0.17426 z m 1538.20119,-5.6321 c -0.3856,-0.38568 -0.7012,-1.55753 -0.7012,-2.60412 0,-1.40137 0.593,-1.81866 2.25,-1.58333 1.4709,0.2089 2.25,1.00733 2.25,2.30585 0,1.98361 -2.4722,3.20814 -3.7988,1.8816 z m -635.7012,-3.8679 c 0,-0.825 0.675,-1.5 1.5,-1.5 0.825,0 1.5,0.675 1.5,1.5 0,0.825 -0.675,1.5 -1.5,1.5 -0.825,0 -1.5,-0.675 -1.5,-1.5 z m 768.6875,0.85417 c -1.3041,-1.3041 -0.6815,-2.35417 1.3958,-2.35417 1.1638,0 1.9086,0.52417 1.6875,1.1875 -0.4871,1.46134 -2.1568,2.09314 -3.0833,1.16667 z M 531.32628,880.72388 c 0.51903,-1.5571 2.75625,-1.82979 2.83465,-0.3455 0.029,0.55 -0.69777,1.15548 -1.61517,1.3455 -1.04271,0.21599 -1.49986,-0.15888 -1.21948,-1 z m 236.78183,-0.3455 c 0,-0.825 0.675,-1.5 1.5,-1.5 0.825,0 1.5,0.675 1.5,1.5 0,0.825 -0.675,1.5 -1.5,1.5 -0.825,0 -1.5,-0.675 -1.5,-1.5 z m -10.33333,-2.16667 c -1.15064,-1.15063 -0.72824,-2.33333 0.83333,-2.33333 0.825,0 1.5,0.675 1.5,1.5 0,1.56157 -1.1827,1.98397 -2.33333,0.83333 z m 336.83332,-15.33333 c -0.3992,-0.64585 -0.2757,-1.62426 0.2743,-2.17426 0.6666,-0.66667 1.2419,-0.60858 1.7257,0.17426 0.3992,0.64585 0.2757,1.62426 -0.2743,2.17426 -0.6666,0.66667 -1.2419,0.60858 -1.7257,-0.17426 z m -967.27082,-15.1875 c 0.61807,-1.85422 2.77083,-2.16176 2.77083,-0.39583 0,0.87083 -0.7125,1.58333 -1.58333,1.58333 -0.87084,0 -1.40521,-0.53437 -1.1875,-1.1875 z m 1291.41032,-1.50635 c -1.1952,-1.19516 -0.6457,-3.30615 0.8605,-3.30615 0.825,0 1.5,0.64844 1.5,1.44098 0,1.67065 -1.4273,2.79841 -2.3605,1.86517 z m -282.9728,-1.97282 c -0.3667,-0.36666 -0.6667,-1.49166 -0.6667,-2.5 0,-1.28889 0.7424,-1.83333 2.5,-1.83333 2,0 2.5,0.5 2.5,2.5 0,1.75758 -0.5444,2.5 -1.8333,2.5 -1.0084,0 -2.1334,-0.3 -2.5,-0.66667 z m 554.5485,-10.57398 c -1.4732,-1.7751 0.047,-4.04799 2.4046,-3.59405 2.2998,0.44289 2.5333,4.18153 0.2882,4.61389 -0.8755,0.16862 -2.0873,-0.2903 -2.6928,-1.01984 z m -562.2152,-6.25935 c 0,-0.825 0.675,-1.5 1.5,-1.5 0.825,0 1.5,0.675 1.5,1.5 0,0.825 -0.675,1.5 -1.5,1.5 -0.825,0 -1.5,-0.675 -1.5,-1.5 z m 736,-3 c 0,-0.825 0.675,-1.5 1.5,-1.5 0.825,0 1.5,0.675 1.5,1.5 0,0.825 -0.675,1.5 -1.5,1.5 -0.825,0 -1.5,-0.675 -1.5,-1.5 z m -263,-3.37143 c 0,-2.43819 1.2588,-3.35022 3.4588,-2.50599 2.3135,0.88775 1.4634,3.81427 -1.219,4.19697 -1.683,0.24011 -2.2398,-0.18025 -2.2398,-1.69098 z M 459.33728,820.69088 c 0.61807,-1.85422 2.77083,-2.16176 2.77083,-0.39583 0,0.87083 -0.7125,1.58333 -1.58333,1.58333 -0.87084,0 -1.40521,-0.53437 -1.1875,-1.1875 z M 1843.567,815.81185 c -0.9204,-1.48915 0.1467,-2.29879 2.0614,-1.56407 0.8835,0.33906 1.3264,1.06965 0.9841,1.62354 -0.8106,1.31154 -2.2151,1.28411 -3.0455,-0.0595 z m -688.9899,-0.98369 c -0.9503,-1.53748 0.3513,-2.52947 1.6348,-1.24598 0.7182,0.71818 0.7354,1.27752 0.052,1.69964 -0.5599,0.34605 -1.3192,0.1419 -1.6872,-0.45366 z M 476.80196,803.2389 c -0.79893,-0.79893 0.10419,-2.36052 1.36517,-2.36052 0.51754,0 0.94098,0.675 0.94098,1.5 0,1.54641 -1.17996,1.9867 -2.30615,0.86052 z m 899.84884,-1.29142 c -0.7395,-1.1966 1.1416,-2.38223 2.4736,-1.55902 1.1184,0.69118 0.3842,2.48992 -1.0163,2.48992 -0.4851,0 -1.1409,-0.41891 -1.4573,-0.9309 z m -925.35102,-2.1441 c 0.19708,-0.59125 0.78583,-1.075 1.30833,-1.075 0.5225,0 1.11125,0.48375 1.30833,1.075 0.19709,0.59125 -0.39166,1.075 -1.30833,1.075 -0.91667,0 -1.50542,-0.48375 -1.30833,-1.075 z M 1659.802,799.2389 c -0.799,-0.79893 0.1041,-2.36052 1.3651,-2.36052 0.5176,0 0.941,0.675 0.941,1.5 0,1.54641 -1.18,1.9867 -2.3061,0.86052 z m -292.6939,-1.77719 c 0,-0.87083 0.7125,-1.58333 1.5833,-1.58333 1.766,0 1.4584,2.15276 -0.3958,2.77083 -0.6531,0.21771 -1.1875,-0.31666 -1.1875,-1.1875 z m 500.4309,0.30487 c -0.862,-1.39478 1.7409,-3.11637 2.9236,-1.93369 0.9619,0.96192 0.035,3.04549 -1.3545,3.04549 -0.4851,0 -1.1912,-0.50031 -1.5691,-1.1118 z m -1688.43089,-2.3882 c 0,-0.825 0.675,-1.5 1.5,-1.5 0.825,0 1.5,0.675 1.5,1.5 0,0.825 -0.675,1.5 -1.5,1.5 -0.825,0 -1.5,-0.675 -1.5,-1.5 z m 254.63948,-6.19385 c -1.12618,-1.12619 -0.68589,-2.30615 0.86052,-2.30615 0.825,0 1.5,0.42344 1.5,0.94098 0,1.26098 -1.56159,2.1641 -2.36052,1.36517 z m 1083.69631,-6.87337 c -0.91,-2.37144 1.2228,-4.04396 3.1341,-2.45772 1.1845,0.98298 1.2845,1.61596 0.42,2.65762 -1.4975,1.80435 -2.8134,1.73034 -3.5541,-0.1999 z m -399.3358,-1.51611 c 0,-2.43705 2.3368,-2.09257 2.8233,0.4162 0.1914,0.98676 -0.3187,1.66713 -1.25,1.66713 -0.9276,0 -1.5733,-0.855 -1.5733,-2.08333 z m -854.42996,-6.80336 c -0.30141,-0.48768 0.082,-1.40954 0.85195,-2.04856 1.55873,-1.29363 3.15488,0.19286 2.07802,1.93525 -0.7652,1.23812 -2.20049,1.29363 -2.92997,0.11331 z m 1441.97266,-0.0442 c -0.7395,-1.1966 1.1416,-2.38223 2.4736,-1.55902 1.1184,0.69118 0.3842,2.48992 -1.0163,2.48992 -0.4851,0 -1.1409,-0.41891 -1.4573,-0.9309 z M 230.26261,768.44073 c 0.19002,-0.9174 0.7955,-1.64422 1.3455,-1.61517 1.48429,0.0784 1.2116,2.31562 -0.3455,2.83465 -0.84112,0.28038 -1.21599,-0.17677 -1,-1.21948 z m -62.1545,-4.06235 c 0,-0.825 0.675,-1.5 1.5,-1.5 0.825,0 1.5,0.675 1.5,1.5 0,0.825 -0.675,1.5 -1.5,1.5 -0.825,0 -1.5,-0.675 -1.5,-1.5 z m 1212.99999,-0.0833 c 0,-0.87084 0.5344,-1.40521 1.1875,-1.1875 1.8542,0.61807 2.1618,2.77083 0.3958,2.77083 -0.8708,0 -1.5833,-0.7125 -1.5833,-1.58333 z m -591.65491,-0.9598 c -0.75454,-1.96628 0.13832,-2.86909 2.09493,-2.11826 0.87889,0.33726 1.27596,1.23798 0.93614,2.12354 -0.75808,1.97552 -2.27198,1.97289 -3.03107,-0.005 z m 554.29441,-4.15072 c -1.1262,-1.12622 -0.6859,-2.30618 0.8605,-2.30618 0.825,0 1.5,0.42344 1.5,0.94098 0,1.26098 -1.5616,2.1641 -2.3605,1.36517 z m 33,0 c -1.1262,-1.12622 -0.6859,-2.30618 0.8605,-2.30618 0.825,0 1.5,0.42344 1.5,0.94098 0,1.26098 -1.5616,2.1641 -2.3605,1.36517 z m -920.63949,-3.72285 c 0,-0.87083 0.7125,-1.58333 1.58333,-1.58333 1.76593,0 1.45839,2.15276 -0.39583,2.77083 -0.65313,0.21771 -1.1875,-0.31666 -1.1875,-1.1875 z m 878.99999,-3.08333 c 0,-0.91667 0.4838,-1.50542 1.075,-1.30833 0.5913,0.19708 1.075,0.78583 1.075,1.30833 0,0.5225 -0.4837,1.11125 -1.075,1.30833 -0.5912,0.19709 -1.075,-0.39166 -1.075,-1.30833 z m -580.04932,-1.05944 c -0.92741,-1.11746 -0.92741,-1.76366 0,-2.88112 1.51058,-1.82014 4.04933,-0.91697 4.04933,1.44056 0,2.35753 -2.53875,3.2607 -4.04933,1.44056 z m 985.04932,-7.94056 c 0,-0.825 0.675,-1.5 1.5,-1.5 0.825,0 1.5,0.675 1.5,1.5 0,0.825 -0.675,1.5 -1.5,1.5 -0.825,0 -1.5,-0.675 -1.5,-1.5 z M 126.45937,741.35136 c -0.36863,-0.96062 -0.0475,-2.0513 0.75302,-2.55765 1.98156,-1.25337 3.39572,-0.56443 3.39572,1.65431 0,2.41553 -3.29329,3.13261 -4.14874,0.90334 z M 1655.802,734.2389 c -0.799,-0.79893 0.1041,-2.36052 1.3651,-2.36052 0.5176,0 0.941,0.675 0.941,1.5 0,1.54641 -1.18,1.9867 -2.3061,0.86052 z m -177.2478,-4.44765 c -0.3695,-0.59793 -0.2798,-1.47919 0.1994,-1.95836 1.1827,-1.18268 3.7856,0.53891 2.9236,1.93369 -0.8735,1.41342 -2.2579,1.42436 -3.123,0.0247 z m -406.7586,-0.5587 c -1.3041,-1.3041 -0.6815,-2.35417 1.3958,-2.35417 1.1638,0 1.9086,0.52417 1.6875,1.1875 -0.4871,1.46134 -2.1568,2.09314 -3.0833,1.16667 z m 501.7929,-7.38593 c -0.3884,-0.62838 -0.2356,-1.61305 0.3395,-2.18815 1.3439,-1.3439 4.4772,-0.17169 3.9304,1.47044 -0.5566,1.67168 -3.3864,2.14732 -4.2699,0.71771 z M 233.55426,715.79125 c -1.03052,-1.66742 1.28721,-3.57951 2.66672,-2.2 1.15392,1.15392 0.43172,3.28713 -1.11287,3.28713 -0.48508,0 -1.18431,-0.48921 -1.55385,-1.08713 z m -33.19615,-1.16287 c 0.22917,-0.6875 1.01667,-1.25 1.75,-1.25 0.73333,0 1.52083,0.5625 1.75,1.25 0.24786,0.74359 -0.46111,1.25 -1.75,1.25 -1.28889,0 -1.99786,-0.50641 -1.75,-1.25 z m 17.75,-0.25 c 0,-0.825 0.675,-1.5 1.5,-1.5 0.825,0 1.5,0.675 1.5,1.5 0,0.825 -0.675,1.5 -1.5,1.5 -0.825,0 -1.5,-0.675 -1.5,-1.5 z m 63.17668,-0.0528 c 0.45227,-2.17211 2.22702,-2.30502 2.63295,-0.19718 0.2108,1.0946 -0.27967,1.75 -1.30963,1.75 -0.96073,0 -1.51197,-0.64684 -1.32332,-1.55282 z m 1417.05251,-7.6347 c 0.618,-1.85422 2.7708,-2.16176 2.7708,-0.39583 0,0.87083 -0.7125,1.58333 -1.5833,1.58333 -0.8709,0 -1.4052,-0.53437 -1.1875,-1.1875 z m 29.7708,-0.3125 c 0,-0.825 0.675,-1.5 1.5,-1.5 0.825,0 1.5,0.675 1.5,1.5 0,0.825 -0.675,1.5 -1.5,1.5 -0.825,0 -1.5,-0.675 -1.5,-1.5 z m -740.55389,-8.58713 c -0.3695,-0.59793 -0.2103,-1.54872 0.3539,-2.11287 1.2616,-1.26163 3.2,-0.19612 3.2,1.75902 0,1.68362 -2.5736,1.93987 -3.5539,0.35385 z m 696.19339,-1.60672 c -1.1262,-1.12619 -0.6859,-2.30615 0.8605,-2.30615 0.825,0 1.5,0.42344 1.5,0.94098 0,1.26098 -1.5616,2.1641 -2.3605,1.36517 z M 33.108108,691.37838 c 0,-0.83333 0.888889,-1.5 2,-1.5 1.111111,0 2,0.66667 2,1.5 0,0.83333 -0.888889,1.5 -2,1.5 -1.111111,0 -2,-0.66667 -2,-1.5 z m 252.176682,-0.0528 c 0.45227,-2.17211 2.22702,-2.30502 2.63295,-0.19718 0.2108,1.0946 -0.27967,1.75 -1.30963,1.75 -0.96073,0 -1.51197,-0.64684 -1.32332,-1.55282 z m 1405.01501,-29.5222 c 0.197,-0.59125 0.7858,-1.075 1.3083,-1.075 0.5225,0 1.1113,0.48375 1.3083,1.075 0.1971,0.59125 -0.3916,1.075 -1.3083,1.075 -0.9167,0 -1.5054,-0.48375 -1.3083,-1.075 z m -95.5253,-11.35189 c -0.7017,-1.82872 1.8467,-3.97394 3.8209,-3.21637 0.832,0.31927 1.5127,1.49461 1.5127,2.61188 0,1.47592 -0.6543,2.03138 -2.393,2.03138 -1.3162,0 -2.6394,-0.6421 -2.9406,-1.42689 z m 95.6117,-6.69497 c -1.6625,-1.66256 -0.3932,-3.87814 2.2219,-3.87814 2.3648,0 3.528,1.57509 2.7694,3.75 -0.5422,1.55419 -3.4895,1.62986 -4.9913,0.12814 z m 154.3886,-0.54481 c -1.2069,-1.2069 -0.6962,-3.10801 1.0108,-3.76309 1.9675,-0.75496 4.8688,1.73681 3.8818,3.3338 -0.7463,1.20758 -3.8427,1.47926 -4.8926,0.42929 z M 735.67954,638.30695 c -1.86505,-1.86505 -2.05418,-5.54582 -0.37143,-7.22857 0.66,-0.66 2.37,-1.2 3.8,-1.2 1.43,0 3.14,0.54 3.8,1.2 2.82807,2.82807 0.24928,8.8 -3.8,8.8 -1.02143,0 -2.56429,-0.70714 -3.42857,-1.57143 z m 1019.09526,-0.0952 c -0.3667,-0.36666 -0.6667,-1.49166 -0.6667,-2.5 0,-2.30977 3.8073,-2.49896 4.6771,-0.23241 0.8195,2.1356 -2.4082,4.33468 -4.0104,2.73241 z m -411.1667,-15.33337 c -0.837,-1.35436 0.2924,-3 2.059,-3 0.7926,0 1.441,0.9 1.441,2 0,2.07031 -2.4125,2.7596 -3.5,1 z m -12.3096,-3.75 c 0.1853,-0.9625 0.9997,-1.75 1.8096,-1.75 0.8099,0 1.6243,0.7875 1.8096,1.75 0.2365,1.22785 -0.3035,1.75 -1.8096,1.75 -1.5061,0 -2.0461,-0.52215 -1.8096,-1.75 z m -1255.190392,-8.25 c 0,-1.64634 0.518305,-2.06549 2.25,-1.81955 1.2375,0.17575 2.25,0.99455 2.25,1.81955 0,0.825 -1.0125,1.6438 -2.25,1.81955 -1.731695,0.24594 -2.25,-0.17321 -2.25,-1.81955 z m 1695.495592,0.99294 c -0.7592,-1.22854 1.9929,-2.42712 3.4728,-1.51245 0.5853,0.36174 0.8053,1.07661 0.4889,1.58861 -0.7632,1.23495 -3.1801,1.18848 -3.9617,-0.0762 z m -1722.999957,-10 c -0.34232,-0.55389 0.10053,-1.28448 0.984111,-1.62354 1.914649,-0.73472 2.981717,0.0749 2.061373,1.56407 -0.830379,1.34358 -2.234909,1.37101 -3.045484,0.0595 z m 1700.191857,0.36123 c -1.3738,-1.37385 -0.6612,-3.49576 1.0625,-3.1638 0.9625,0.18536 1.75,0.96836 1.75,1.73999 0,1.57886 -1.7643,2.47201 -2.8125,1.42381 z m -310.6875,-1.92749 c 0,-0.93124 0.6804,-1.44138 1.6671,-1.25 2.5088,0.48655 2.8533,2.82332 0.4162,2.82332 -1.2283,0 -2.0833,-0.64569 -2.0833,-1.57332 z M 337.77478,591.21171 c -1.15064,-1.15063 -0.72824,-2.33333 0.83333,-2.33333 0.825,0 1.5,0.675 1.5,1.5 0,1.56157 -1.1827,1.98397 -2.33333,0.83333 z M 92.108108,578.48537 c 0,-2.9212 2.81537,-4.22019 4.81429,-2.22128 2.03081,2.03082 0.75265,4.61429 -2.28291,4.61429 -2.00329,0 -2.53138,-0.49922 -2.53138,-2.39301 z M 1264.7956,571.23255 c -1.3738,-1.37385 -0.6612,-3.49576 1.0625,-3.1638 0.9625,0.18536 1.75,0.96836 1.75,1.73999 0,1.57886 -1.7643,2.47201 -2.8125,1.42381 z m 462.8451,-0.30138 c -0.8792,-1.42264 0.242,-3.05279 2.0997,-3.05279 0.8762,0 1.3781,0.70256 1.191,1.66713 -0.3895,2.00847 -2.3861,2.84922 -3.2907,1.38566 z m -22.0865,-1.13992 c -0.8726,-1.41202 1.0547,-3.3394 2.4668,-2.46672 0.5979,0.36954 1.0871,1.32033 1.0871,2.11287 0,1.68362 -2.5736,1.93987 -3.5539,0.35385 z m 64.5539,-0.41287 c 0,-0.83333 0.8889,-1.5 2,-1.5 1.1111,0 2,0.66667 2,1.5 0,0.83333 -0.8889,1.5 -2,1.5 -1.1111,0 -2,-0.66667 -2,-1.5 z m -496,-3.83333 c 0,-1.88088 0.9623,-2.61836 2.5978,-1.99078 2.127,0.81623 1.676,3.32411 -0.5978,3.32411 -1.1,0 -2,-0.6 -2,-1.33333 z m 232.1917,-11.74167 c 0.197,-0.59125 0.7858,-1.075 1.3083,-1.075 0.5225,0 1.1113,0.48375 1.3083,1.075 0.1971,0.59125 -0.3916,1.075 -1.3083,1.075 -0.9167,0 -1.5054,-0.48375 -1.3083,-1.075 z m -33.6917,-2.925 c -0.3992,-0.64585 -0.2757,-1.62426 0.2743,-2.17426 0.6666,-0.66667 1.2419,-0.60858 1.7257,0.17426 0.3992,0.64585 0.2757,1.62426 -0.2743,2.17426 -0.6666,0.66667 -1.2419,0.60858 -1.7257,-0.17426 z m -192.9573,-0.9309 c -0.3164,-0.512 -0.118,-1.21356 0.441,-1.55902 1.1934,-0.73755 3.0163,0.19857 3.0163,1.54894 0,1.2168 -2.7066,1.22469 -3.4573,0.0101 z m 218.649,-24.1441 c 0.197,-0.59125 0.7858,-1.075 1.3083,-1.075 0.5225,0 1.1113,0.48375 1.3083,1.075 0.1971,0.59125 -0.3916,1.075 -1.3083,1.075 -0.9167,0 -1.5054,-0.48375 -1.3083,-1.075 z m -86.1917,-2.50833 c 0,-1.76593 2.1528,-1.45839 2.7708,0.39583 0.2177,0.65313 -0.3166,1.1875 -1.1875,1.1875 -0.8708,0 -1.5833,-0.7125 -1.5833,-1.58333 z m -680.74999,-0.66667 c 0.22917,-0.6875 1.01667,-1.25 1.75,-1.25 0.73333,0 1.52083,0.5625 1.75,1.25 0.24786,0.74359 -0.46111,1.25 -1.75,1.25 -1.28889,0 -1.99786,-0.50641 -1.75,-1.25 z m -677.250002,-1.25 c -0.993186,-1.19672 -0.993186,-1.80328 0,-3 0.684689,-0.825 1.809689,-1.5 2.5,-1.5 0.690311,0 1.815311,0.675 2.5,1.5 0.993186,1.19672 0.993186,1.80328 0,3 -0.684689,0.825 -1.809689,1.5 -2.5,1.5 -0.690311,0 -1.815311,-0.675 -2.5,-1.5 z m 1413.542692,-5.4309 c -0.7395,-1.1966 1.1416,-2.38223 2.4736,-1.55902 1.1184,0.69118 0.3842,2.48992 -1.0163,2.48992 -0.4851,0 -1.1409,-0.41891 -1.4573,-0.9309 z m 86.8765,-2.19991 c -0.8524,-1.37908 1.1052,-3.28117 2.4937,-2.42304 0.5979,0.36954 1.0871,1.04718 1.0871,1.50588 0,1.33025 -2.8711,2.06562 -3.5808,0.91716 z M 15.608108,512.87838 c -0.923305,-1.49394 0.361375,-3 2.559017,-3 1.274316,0 1.940983,0.68694 1.940983,2 0,2.12106 -3.347411,2.86493 -4.5,1 z m 1421.946092,-0.0871 c -1.0305,-1.66742 1.2873,-3.57951 2.6668,-2.2 1.1539,1.15392 0.4317,3.28713 -1.1129,3.28713 -0.4851,0 -1.1843,-0.48921 -1.5539,-1.08713 z m 263.628,-1.86705 c -1.5785,-0.9756 -0.5692,-3.04585 1.4849,-3.04585 1.52,0 2.0031,2.53458 0.6433,3.375 -0.4388,0.27117 -1.3965,0.12304 -2.1282,-0.32918 z m 151.6134,-0.69165 c -1.4155,-1.41555 -0.6145,-3.3542 1.3858,-3.3542 1.398,0 1.968,0.54305 1.75,1.66713 -0.3569,1.84048 -2.064,2.75886 -3.1358,1.68704 z m -472.6875,-25.8542 c 0,-0.825 0.675,-1.5 1.5,-1.5 0.825,0 1.5,0.675 1.5,1.5 0,0.825 -0.675,1.5 -1.5,1.5 -0.825,0 -1.5,-0.675 -1.5,-1.5 z m -791.23971,-1.75 c -1.55952,-1.20187 -2.13078,-2.86719 -1.87876,-5.47695 0.0652,-0.67482 1.24348,-1.96407 2.61848,-2.86501 2.31587,-1.51741 2.68413,-1.51741 5,0 2.97228,1.94751 3.27922,5.5768 0.67126,7.93697 -2.18266,1.97528 -4.20742,2.10319 -6.41098,0.40499 z m 1186.77231,-7.69721 c -0.8792,-1.42264 0.242,-3.05279 2.0997,-3.05279 0.8762,0 1.3781,0.70256 1.191,1.66713 -0.3895,2.00847 -2.3861,2.84922 -3.2907,1.38566 z M 693.61819,472.89469 c -0.73755,-1.19337 0.19857,-3.01631 1.54894,-3.01631 1.2168,0 1.22469,2.70662 0.0101,3.45729 -0.512,0.31644 -1.21356,0.11799 -1.55902,-0.44098 z m 26.93607,-6.10344 c -1.03052,-1.66742 1.28721,-3.57951 2.66672,-2.2 1.15392,1.15392 0.43172,3.28713 -1.11287,3.28713 -0.48508,0 -1.18431,-0.48921 -1.55385,-1.08713 z m 749.03424,-9.94463 c -0.3884,-0.62838 -0.2356,-1.61305 0.3395,-2.18815 1.3439,-1.3439 4.4772,-0.17169 3.9304,1.47044 -0.5566,1.67168 -3.3864,2.14732 -4.2699,0.71771 z m 40.8554,-0.53546 c -0.91,-2.37144 1.2228,-4.04396 3.1341,-2.45772 1.1845,0.98298 1.2845,1.61596 0.42,2.65762 -1.4975,1.80435 -2.8134,1.73034 -3.5541,-0.1999 z m 18.1642,-0.43278 c -0.9233,-1.49394 0.3614,-3 2.559,-3 1.2743,0 1.941,0.68694 1.941,2 0,2.12106 -3.3474,2.86493 -4.5,1 z m -752.49999,-5 c 0,-0.55 0.45,-1 1,-1 0.55,0 1,0.45 1,1 0,0.55 -0.45,1 -1,1 -0.55,0 -1,-0.45 -1,-1 z m 1012.68749,-6.64583 c -1.3041,-1.3041 -0.6815,-2.35417 1.3958,-2.35417 1.1638,0 1.9086,0.52417 1.6875,1.1875 -0.4871,1.46134 -2.1568,2.09314 -3.0833,1.16667 z m -693.3259,-9.85417 c -0.8975,-2.33883 0.3696,-4.5 2.6384,-4.5 2.5442,0 3.651,2.51064 1.9894,4.51273 -1.5879,1.91334 -3.8911,1.907 -4.6278,-0.0127 z m 777.6384,0.059 c 0,-0.79254 0.359,-1.66285 0.7977,-1.93402 1.2793,-0.79065 3.5252,1.04345 2.7714,2.2632 -0.9922,1.60541 -3.5691,1.36774 -3.5691,-0.32918 z m -63.5539,-1.64615 c -1.0305,-1.66742 1.2873,-3.57951 2.6668,-2.2 1.1539,1.15392 0.4317,3.28713 -1.1129,3.28713 -0.4851,0 -1.1843,-0.48921 -1.5539,-1.08713 z m -215,-9 c -1.0305,-1.66742 1.2873,-3.57951 2.6668,-2.2 1.1539,1.15392 0.4317,3.28713 -1.1129,3.28713 -0.4851,0 -1.1843,-0.48921 -1.5539,-1.08713 z m -186.3853,-5.33963 c -0.7981,-0.96166 -0.6967,-1.63051 0.3831,-2.52665 1.6503,-1.36964 3.5561,-0.61643 3.5561,1.40544 0,1.91056 -2.6566,2.66669 -3.9392,1.12121 z m 37.5984,0.68438 c -0.29,-0.46921 -0.1523,-1.4597 0.3059,-2.20108 1.0142,-1.64101 4.376,-0.58055 3.7852,1.19399 -0.5004,1.50292 -3.351,2.20464 -4.0911,1.00709 z m 293.8835,-4.18852 c -0.7395,-1.1966 1.1416,-2.38223 2.4736,-1.55902 1.1184,0.69118 0.3842,2.48992 -1.0163,2.48992 -0.4851,0 -1.1409,-0.41891 -1.4573,-0.9309 z m -277.2133,-6.65318 c -0.7166,-1.86736 1.061,-3.91072 2.5835,-2.96977 1.5877,0.98128 1.3278,3.24751 -0.4508,3.93 -0.8911,0.34197 -1.788,-0.0618 -2.1327,-0.96023 z m 53,0 c -0.7166,-1.86736 1.061,-3.91072 2.5835,-2.96977 1.5877,0.98128 1.3278,3.24751 -0.4508,3.93 -0.8911,0.34197 -1.788,-0.0618 -2.1327,-0.96023 z M 91.108108,405.9517 c 0,-1.43109 0.64223,-2.07332 2.07332,-2.07332 1.4311,0 1.96962,0.53852 1.73852,1.73852 -0.50201,2.60673 -3.81184,2.89745 -3.81184,0.3348 z m 408.446152,0.83955 c -0.94095,-1.52249 1.10241,-3.30008 2.96977,-2.58351 0.89841,0.34476 1.3022,1.24162 0.96023,2.13279 -0.68249,1.77855 -2.94872,2.03846 -3.93,0.45072 z m 1034.05384,-9.91287 c -0.9233,-1.49394 0.3614,-3 2.559,-3 1.2743,0 1.941,0.68694 1.941,2 0,2.12106 -3.3474,2.86493 -4.5,1 z m -59.5,-12.5 c 0,-0.825 0.675,-1.5 1.5,-1.5 0.825,0 1.5,0.675 1.5,1.5 0,0.825 -0.675,1.5 -1.5,1.5 -0.825,0 -1.5,-0.675 -1.5,-1.5 z m -227.8083,-1.575 c 0.197,-0.59125 0.7858,-1.075 1.3083,-1.075 0.5225,0 1.1113,0.48375 1.3083,1.075 0.1971,0.59125 -0.3916,1.075 -1.3083,1.075 -0.9167,0 -1.5054,-0.48375 -1.3083,-1.075 z M -15.225225,375.21171 c -1.175323,-1.17532 -0.712824,-4.10164 0.736134,-4.65766 2.081638,-0.7988 5.0370941,1.7356 4.291064,3.67972 -0.628508,1.63787 -3.758414,2.24673 -5.027198,0.97794 z M 1337.1081,355.87838 c 0,-1.50615 0.5222,-2.04609 1.75,-1.80963 0.9625,0.18536 1.75,0.99969 1.75,1.80963 0,0.80994 -0.7875,1.62427 -1.75,1.80963 -1.2278,0.23646 -1.75,-0.30348 -1.75,-1.80963 z m 132.1904,0.25 c 0.1853,-0.9625 0.9997,-1.75 1.8096,-1.75 0.8099,0 1.6243,0.7875 1.8096,1.75 0.2365,1.22785 -0.3035,1.75 -1.8096,1.75 -1.5061,0 -2.0461,-0.52215 -1.8096,-1.75 z M 1100.1543,352.434 c -2.7007,-3.25413 1.7687,-7.16931 4.7644,-4.1736 1.2735,1.27355 1.404,2.05494 0.5653,3.38674 -1.4602,2.31867 -3.7748,2.66039 -5.3297,0.78686 z m 135.9538,-3.05562 c 0,-0.91667 0.4838,-1.50542 1.075,-1.30833 0.5913,0.19708 1.075,0.78583 1.075,1.30833 0,0.5225 -0.4837,1.11125 -1.075,1.30833 -0.5912,0.19709 -1.075,-0.39166 -1.075,-1.30833 z m -33,-4 c 0,-0.825 0.45,-1.5 1,-1.5 0.55,0 1,0.675 1,1.5 0,0.825 -0.45,1.5 -1,1.5 -0.55,0 -1,-0.675 -1,-1.5 z m 463.38,0.0479 c -0.7037,-1.83386 0.3205,-3.54789 2.12,-3.54789 2.0581,0 2.8378,1.88799 1.4636,3.5438 -1.5384,1.85369 -2.8733,1.85521 -3.5836,0.004 z m -80.2053,-2.21668 c 0.4239,-2.20119 4.3253,-2.49994 4.3253,-0.33121 0,0.825 -1.0525,1.64904 -2.339,1.83121 -1.8138,0.25684 -2.2597,-0.0799 -1.9863,-1.5 z m -268.1747,-1.83122 c 0,-0.91667 0.4838,-1.50542 1.075,-1.30833 0.5913,0.19708 1.075,0.78583 1.075,1.30833 0,0.5225 -0.4837,1.11125 -1.075,1.30833 -0.5912,0.19709 -1.075,-0.39166 -1.075,-1.30833 z m -909.33356,-2.92689 c -0.30115,-0.78478 0.0251,-1.90216 0.72506,-2.48305 1.60776,-1.33433 5.25293,1.05824 4.20227,2.75824 -1.00023,1.6184 -4.27078,1.43575 -4.92733,-0.27519 z m 1283.34716,-2.56471 c -1.858,-1.14828 -0.463,-4.0084 1.955,-4.0084 1.3265,0 2.0314,0.65692 2.0314,1.89301 0,2.18448 -2.0847,3.29072 -3.9864,2.11539 z m -494.3469,-1.67507 c -1.1507,-1.15063 -0.7283,-2.33333 0.8333,-2.33333 0.825,0 1.5,0.675 1.5,1.5 0,1.56157 -1.1827,1.98397 -2.3333,0.83333 z m -810.66669,-7.1184 c -3.43631,-1.17938 -4.04684,-5.58431 -1,-7.21493 2.79513,-1.49591 6,0.3736 6,3.5 0,2.62549 -2.58286,4.54452 -5,3.71493 z m 866.36419,-0.70824 c -0.3464,-0.90262 -0.1503,-2.12063 0.4358,-2.70669 1.5236,-1.52361 4.4104,-0.13109 4.0124,1.93549 -0.4433,2.30188 -3.6476,2.85743 -4.4482,0.7712 z m 17.6358,-5.00669 c 0,-0.825 0.45,-1.5 1,-1.5 0.55,0 1,0.675 1,1.5 0,0.825 -0.45,1.5 -1,1.5 -0.55,0 -1,-0.675 -1,-1.5 z m 126.1904,-5.25 c 0.1853,-0.9625 0.9997,-1.75 1.8096,-1.75 0.8099,0 1.6243,0.7875 1.8096,1.75 0.2365,1.22785 -0.3035,1.75 -1.8096,1.75 -1.5061,0 -2.0461,-0.52215 -1.8096,-1.75 z m -229.1904,-0.75 c 0,-0.91667 0.4838,-1.50542 1.075,-1.30833 0.5913,0.19708 1.075,0.78583 1.075,1.30833 0,0.5225 -0.4837,1.11125 -1.075,1.30833 -0.5912,0.19709 -1.075,-0.39166 -1.075,-1.30833 z m -697.345,-8.32874 c -2.83184,-3.12914 -1.43759,-7.17126 2.47358,-7.17126 2.06169,0 4.87143,2.59551 4.87143,4.5 0,1.71329 -2.73497,4.5 -4.41644,4.5 -0.70047,0 -2.01833,-0.82293 -2.92857,-1.82874 z m 1184.725,-7.62337 c -0.7037,-1.83386 0.3205,-3.54789 2.12,-3.54789 2.0581,0 2.8378,1.88799 1.4636,3.5438 -1.5384,1.85369 -2.8733,1.85521 -3.5836,0.004 z m -43.0287,-2.07491 c -0.3687,-0.96062 -0.048,-2.0513 0.753,-2.55765 1.9815,-1.25337 3.3957,-0.56443 3.3957,1.65431 0,2.41553 -3.2933,3.13261 -4.1487,0.90334 z m 21.8234,-2.14177 c 0.4239,-2.20119 4.3253,-2.49994 4.3253,-0.33121 0,0.825 -1.0525,1.64904 -2.339,1.83121 -1.8138,0.25684 -2.2597,-0.0799 -1.9863,-1.5 z m -34.7947,-0.78332 c -0.7166,-1.86753 0.3303,-3.54789 2.2104,-3.54789 2.0434,0 3.0049,3.00945 1.3053,4.08561 -1.9883,1.25898 -2.8785,1.12282 -3.5157,-0.53772 z M 28.795608,288.23255 c -1.415515,-1.41552 -0.614532,-3.35417 1.385824,-3.35417 1.397962,0 1.968005,0.54305 1.75,1.66713 -0.356943,1.84048 -2.064002,2.75886 -3.135824,1.68704 z M 1687.1081,276.98537 c 0,-2.18448 2.0847,-3.29072 3.9864,-2.11539 1.858,1.14828 0.463,4.0084 -1.955,4.0084 -1.3265,0 -2.0314,-0.65692 -2.0314,-1.89301 z m 73.4407,0.79705 c -0.3725,-0.60278 0.028,-1.80162 0.8908,-2.6641 1.2624,-1.26243 1.8587,-1.32695 3.0589,-0.33092 0.8199,0.68046 1.2443,1.87931 0.9432,2.66409 -0.6457,1.68259 -3.9206,1.90409 -4.8929,0.33093 z m 29.0353,-1.94282 c -1.0104,-1.63494 2.0351,-4.3628 4.0204,-3.60099 0.9083,0.34855 1.5011,1.42258 1.3173,2.38675 -0.387,2.0302 -4.2853,2.91702 -5.3377,1.21424 z m -571.2468,-3.14872 c 0.618,-1.85422 2.7708,-2.16176 2.7708,-0.39583 0,0.87083 -0.7125,1.58333 -1.5833,1.58333 -0.8709,0 -1.4052,-0.53438 -1.1875,-1.1875 z m -200.192,-1.74305 c -1.4691,-2.74494 1.2873,-5.50133 4.0322,-4.03228 2.2007,1.17775 2.482,3.01146 0.7306,4.76283 -1.7514,1.75137 -3.5851,1.4701 -4.7628,-0.73055 z m -615.39771,-0.7633 c -1.12618,-1.12619 -0.68589,-2.30615 0.86052,-2.30615 0.825,0 1.5,0.42344 1.5,0.94098 0,1.26098 -1.56159,2.1641 -2.36052,1.36517 z m 931.74051,-7.75826 c -0.7631,-1.98855 0.3674,-3.54789 2.572,-3.54789 1.9658,0 3.0266,1.71664 2.3174,3.75 -0.6016,1.72445 -4.2073,1.5754 -4.8894,-0.20211 z m -80.38,-2.04789 c 0,-0.91667 0.4838,-1.50542 1.075,-1.30833 0.5913,0.19708 1.075,0.78583 1.075,1.30833 0,0.5225 -0.4837,1.11125 -1.075,1.30833 -0.5912,0.19709 -1.075,-0.39166 -1.075,-1.30833 z m -69.5916,-11.87821 c -0.8094,-2.10918 0.3267,-3.62179 2.7202,-3.62179 1.5107,0 1.9311,0.5568 1.691,2.23978 -0.373,2.61398 -3.5558,3.61115 -4.4112,1.38201 z m 515.7219,0.0352 c -1.3849,-1.66872 0.2702,-4.10104 2.2688,-3.33412 0.8805,0.33788 1.6009,1.25531 1.6009,2.03873 0,1.93357 -2.6139,2.80857 -3.8697,1.29539 z m 65.3697,0.34301 c -0.8965,-1.45061 0.339,-3 2.3924,-3 2.3024,0 3.1011,0.85326 2.4317,2.59777 -0.6189,1.61286 -3.9065,1.88698 -4.8241,0.40223 z m -70.0593,-17.09596 c -0.3725,-0.60278 0.028,-1.80162 0.8908,-2.6641 1.2624,-1.26243 1.8587,-1.32695 3.0589,-0.33092 0.8199,0.68046 1.2443,1.87931 0.9432,2.66409 -0.6457,1.68259 -3.9206,1.90409 -4.8929,0.33093 z M 437.44065,228.26315 c -1.53546,-2.34341 -1.56037,-2.88909 -0.23963,-5.25 2.56149,-4.57888 9.23301,-3.66869 10.5138,1.43439 1.45402,5.79326 -6.93661,8.90936 -10.27417,3.81561 z m 825.33415,-0.0514 c -1.1507,-1.15067 -0.7283,-2.33337 0.8333,-2.33337 0.825,0 1.5,0.675 1.5,1.5 0,1.56157 -1.1827,1.98397 -2.3333,0.83333 z m -300.47502,-1.40837 c 0.19708,-0.59125 0.78583,-1.075 1.30833,-1.075 0.5225,0 1.11125,0.48375 1.30833,1.075 0.19709,0.59125 -0.39166,1.075 -1.30833,1.075 -0.91667,0 -1.50542,-0.48375 -1.30833,-1.075 z m 701.30832,-3.925 c -0.9233,-1.49394 0.3614,-3 2.559,-3 1.2743,0 1.941,0.68694 1.941,2 0,2.12106 -3.3474,2.86493 -4.5,1 z m 58.88,-0.45211 c -0.7037,-1.83386 0.3205,-3.54789 2.12,-3.54789 2.0581,0 2.8378,1.88799 1.4636,3.5438 -1.5384,1.85369 -2.8733,1.85521 -3.5836,0.004 z m -102.393,-2.06353 c -1.4688,-1.76978 -0.4492,-3.48436 2.072,-3.48436 1.2378,0 1.941,0.68585 1.941,1.89301 0,2.42001 -2.5019,3.41213 -4.013,1.59135 z m 217.4934,0.48388 c -0.3884,-0.62838 -0.2356,-1.61305 0.3395,-2.18815 1.3439,-1.3439 4.4772,-0.17169 3.9304,1.47044 -0.5566,1.67168 -3.3864,2.14732 -4.2699,0.71771 z m -406.2512,-16.15574 c 0.618,-1.85422 2.7708,-2.16176 2.7708,-0.39583 0,0.87083 -0.7125,1.58333 -1.5833,1.58333 -0.8709,0 -1.4052,-0.53438 -1.1875,-1.1875 z m 113.7708,-7.8125 c 0,-1.64634 0.5183,-2.06549 2.25,-1.81955 1.2375,0.17575 2.25,0.99455 2.25,1.81955 0,0.825 -1.0125,1.6438 -2.25,1.81955 -1.7317,0.24594 -2.25,-0.17321 -2.25,-1.81955 z m -320.7708,-7.1875 c 0.618,-1.85422 2.7708,-2.16176 2.7708,-0.39583 0,0.87083 -0.7125,1.58333 -1.5833,1.58333 -0.8709,0 -1.4052,-0.53438 -1.1875,-1.1875 z m 261.7708,-4.22917 c 0,-0.87083 0.7125,-1.58333 1.5833,-1.58333 0.8709,0 1.4052,0.53437 1.1875,1.1875 -0.618,1.85422 -2.7708,2.16176 -2.7708,0.39583 z m 231.5,-0.58333 c -0.8965,-1.45061 0.339,-3 2.3924,-3 2.3024,0 3.1011,0.85326 2.4317,2.59777 -0.6189,1.61286 -3.9065,1.88698 -4.8241,0.40223 z m -723.30959,-8.75 c 0.1853,-0.9625 0.9997,-1.75 1.8096,-1.75 0.8099,0 1.6243,0.7875 1.8096,1.75 0.2365,1.22785 -0.3035,1.75 -1.8096,1.75 -1.5061,0 -2.0461,-0.52215 -1.8096,-1.75 z M 271.73899,175.023 c -2.97936,-3.29216 0.45454,-7.23964 4.44156,-5.10585 2.17411,1.16355 2.52743,3.96136 0.72756,5.76123 -1.6893,1.6893 -3.22322,1.49481 -5.16912,-0.65538 z m 716.90172,-10.09183 c -0.8792,-1.42264 0.242,-3.05279 2.0997,-3.05279 0.8762,0 1.3781,0.70256 1.191,1.66713 -0.3895,2.00847 -2.3861,2.84922 -3.2907,1.38566 z M 1433.802,160.2389 c -0.799,-0.79893 0.1041,-2.36052 1.3651,-2.36052 0.5176,0 0.941,0.675 0.941,1.5 0,1.54641 -1.18,1.9867 -2.3061,0.86052 z m -392.3581,-1.92774 c -0.8334,-2.17196 1.2825,-4.21451 2.797,-2.7 1.28,1.28004 0.487,4.26722 -1.1328,4.26722 -0.5845,0 -1.3334,-0.70525 -1.6642,-1.56722 z m 222.2069,-10.36368 c -0.7395,-1.1966 1.1416,-2.38223 2.4736,-1.55902 1.1184,0.69118 0.3842,2.48992 -1.0163,2.48992 -0.4851,0 -1.1409,-0.41891 -1.4573,-0.9309 z m 378.4573,-7.96211 c 0,-2.42001 2.5019,-3.41213 4.013,-1.59135 1.4688,1.76978 0.4492,3.48436 -2.072,3.48436 -1.2378,0 -1.941,-0.68585 -1.941,-1.89301 z M 980.10811,127.87838 c 0,-1.50615 0.5222,-2.04609 1.75,-1.80963 0.9625,0.18536 1.75,0.99969 1.75,1.80963 0,0.80994 -0.7875,1.62427 -1.75,1.80963 -1.2278,0.23646 -1.75,-0.30348 -1.75,-1.80963 z m -733.37615,-2.53785 c -0.34197,-0.89117 0.0618,-1.78803 0.96023,-2.13279 1.86736,-0.71657 3.91072,1.06102 2.96977,2.58351 -0.98128,1.58774 -3.24751,1.32783 -3.93,-0.45072 z m 76.57615,-0.66215 c -0.66,-0.66 -1.2,-2.20468 -1.2,-3.43261 0,-4.02941 6.27777,-4.21831 7.54455,-0.22702 1.18572,3.73587 -3.54155,6.46263 -6.34455,3.65963 z M 699.4723,114.38507 c -0.34636,-0.90262 -0.15025,-2.12063 0.43581,-2.70669 1.52361,-1.52361 4.41041,-0.13109 4.01242,1.93549 -0.4433,2.30188 -3.64766,2.85743 -4.44823,0.7712 z M 1868.3576,92.628378 c 0.6301,-1.89219 3.7505,-2.1612 3.7505,-0.32332 0,0.92763 -0.855,1.57332 -2.0833,1.57332 -1.222,0 -1.9113,-0.51682 -1.6672,-1.25 z M 205.77478,86.211711 c -1.37657,-1.376564 -0.59386,-3.333333 1.33333,-3.333333 1.33333,0 2,0.666667 2,2 0,1.92719 -1.95677,2.709897 -3.33333,1.333333 z m 545,-15 c -1.04997,-1.049967 -0.77829,-4.146315 0.42929,-4.89264 1.55599,-0.961653 4.29679,2.093424 3.57217,3.981766 -0.61848,1.611726 -2.80327,2.109063 -4.00146,0.910874 z M 221.30811,60.678378 c -1.73781,-1.73781 -1.47225,-5.48155 0.4409,-6.215697 1.91559,-0.735079 6.3591,1.877427 6.3591,3.73875 0,1.766473 -2.07833,3.676947 -4,3.676947 -0.88,0 -2.14,-0.54 -2.8,-1.2 z m 50.87084,-2.667626 c -1.45687,-2.722196 -0.32339,-5.132374 2.4137,-5.132374 4.95595,0 6.17088,6.24821 1.32417,6.809932 -1.85518,0.215011 -2.99996,-0.298769 -3.73787,-1.677558 z M 1456.802,53.238898 c -0.9333,-0.933243 0.1945,-2.36052 1.8651,-2.36052 0.7926,0 1.441,0.675 1.441,1.5 0,1.50623 -2.111,2.055676 -3.3061,0.86052 z m -417.6939,-9.86052 c 0,-0.916667 0.4838,-1.505417 1.075,-1.308333 0.5913,0.197083 1.075,0.785833 1.075,1.308333 0,0.5225 -0.4837,1.11125 -1.075,1.308333 -0.5912,0.197084 -1.075,-0.391666 -1.075,-1.308333 z M 693.38625,32.756523 c -1.52897,-1.528971 -0.47163,-3.878145 1.74552,-3.878145 1.94445,0 2.96668,1.725138 2.22204,3.75 -0.57106,1.552883 -2.48112,1.614575 -3.96756,0.128145 z M 346.10811,2.3783784 c 0,-0.825 0.675,-1.50000002 1.5,-1.50000002 0.825,0 1.5,0.67500002 1.5,1.50000002 0,0.825 -0.675,1.5 -1.5,1.5 -0.825,0 -1.5,-0.675 -1.5,-1.5 z m 336.33583,-3.06721742 c -0.33077,-0.86196958 -0.12189,-2.04672178 0.46417,-2.63278258 1.55545,-1.5554531 4.2,-0.1899757 4.2,2.1686152 0,2.4662168 -3.7526,2.8396668 -4.66417,0.46416738 z"
       style="fill:#ffff00" />
  </g>
</svg>
