<?xml version="1.0" encoding="UTF-8" standalone="no"?>
<svg
   xmlns:dc="http://purl.org/dc/elements/1.1/"
   xmlns:cc="http://creativecommons.org/ns#"
   xmlns:rdf="http://www.w3.org/1999/02/22-rdf-syntax-ns#"
   xmlns:svg="http://www.w3.org/2000/svg"
   xmlns="http://www.w3.org/2000/svg"
   xmlns:sodipodi="http://sodipodi.sourceforge.net/DTD/sodipodi-0.dtd"
   xmlns:inkscape="http://www.inkscape.org/namespaces/inkscape"
   inkscape:version="1.0 (4035a4f, 2020-05-01)"
   sodipodi:docname="1200px-Star_background.svg.png"
   viewBox="0 0 1200 1697"
   height="1697"
   width="1200"
   id="svg3145"
   version="1.1">
  <metadata
     id="metadata3151">
    <rdf:RDF>
      <cc:Work
         rdf:about="">
        <dc:format>image/svg+xml</dc:format>
        <dc:type
           rdf:resource="http://purl.org/dc/dcmitype/StillImage" />
        <dc:title></dc:title>
      </cc:Work>
    </rdf:RDF>
  </metadata>
  <defs
     id="defs3149" />
  <sodipodi:namedview
     inkscape:current-layer="g3153"
     inkscape:window-maximized="0"
     inkscape:window-y="24"
     inkscape:window-x="0"
     inkscape:cy="659.423"
     inkscape:cx="628.66554"
     inkscape:zoom="0.34885091"
     showgrid="false"
     id="namedview3147"
     inkscape:window-height="776"
     inkscape:window-width="1280"
     inkscape:pageshadow="2"
     inkscape:pageopacity="0"
     guidetolerance="10"
     gridtolerance="10"
     objecttolerance="10"
     borderopacity="1"
     bordercolor="#666666"
     pagecolor="#ffffff" />
  <g
     id="g3153"
     inkscape:label="Image"
     inkscape:groupmode="layer">
    <path
       id="path3157"
       d="m 1360.9378,1134.6625 c -7.4312,5.036 -14.2072,9.583 -15.0578,10.1044 -1.3422,0.8229 -1.5485,3.3883 -1.5627,19.4424 -0.01,10.172 -0.1565,18.6148 -0.3275,18.7619 -0.171,0.1471 -6.8452,-4.7767 -14.8314,-10.9416 -13.197,-10.1874 -14.7811,-11.1439 -17.3797,-10.4942 -1.5726,0.3932 -9.7887,2.9612 -18.2581,5.7067 -11.5012,3.7283 -15.221,4.5769 -14.6965,3.3525 0.3864,-0.9016 3.2967,-8.9563 6.4674,-17.8993 l 5.7649,-16.2601 -11.1146,-15.2088 c -6.113,-8.3649 -10.9536,-15.1921 -10.7568,-15.1718 0.1969,0.02 8.6705,0.2211 18.8303,0.4461 12.239,0.2709 18.7911,0.017 19.4167,-0.7531 0.5193,-0.6391 5.5311,-7.4493 11.1373,-15.1339 l 10.1931,-13.9719 1.6799,5.1485 c 0.9239,2.8317 3.3827,10.9801 5.464,18.1075 l 3.784,12.9589 12.3937,4.0168 c 6.8165,2.2092 14.6919,4.7592 17.5008,5.6666 2.809,0.9074 5.0526,1.946 4.9858,2.3079 -0.067,0.362 -6.2015,4.7785 -13.6328,9.8145 z m -52.6045,197.2522 c -4.8315,-0.8747 -11.9365,-2.1874 -15.7889,-2.9172 l -7.0046,-1.3269 -11.0525,11.0445 c -6.079,6.0745 -11.2942,11.0162 -11.5895,10.9815 -0.2953,-0.035 -1.2418,-5.5271 -2.1034,-12.2054 -2.7471,-21.2935 -0.6626,-18.0619 -17.0498,-26.4308 l -14.3128,-7.3095 4.4928,-2.2103 c 2.471,-1.2156 9.0737,-4.3813 14.6726,-7.0349 l 10.1798,-4.8247 2.3495,-15.7021 c 1.2922,-8.6362 2.5671,-15.6796 2.8333,-15.652 0.2661,0.028 5.2422,5.0656 11.0579,11.1956 5.8157,6.1301 11.2463,11.2078 12.0678,11.2839 0.8216,0.076 7.9379,-0.9279 15.8141,-2.2309 7.8762,-1.303 14.4426,-2.2512 14.592,-2.107 0.1494,0.1441 -3.1308,6.5308 -7.2893,14.1925 l -7.5608,13.9305 6.5709,12.9803 c 3.6139,7.1392 6.8711,13.6447 7.2381,14.4567 0.5606,1.2405 -0.7365,1.2223 -8.1172,-0.1138 z m 58.3491,-583.33949 c -2.0665,-0.46474 -7.2285,-1.55761 -11.471,-2.42861 l -7.7138,-1.58364 -8.4015,8.04922 c -4.6209,4.42706 -8.5061,7.90111 -8.6338,7.72008 -0.1276,-0.18101 -0.7488,-5.13294 -1.3804,-11.00429 -0.6315,-5.87134 -1.4603,-11.15991 -1.8418,-11.75237 -0.3814,-0.59247 -5.0154,-3.33462 -10.2977,-6.09368 -5.2822,-2.75904 -9.5754,-5.23968 -9.5404,-5.51253 0.038,-0.2725 4.5575,-2.45313 10.0498,-4.84509 5.4925,-2.39195 10.2387,-4.67653 10.5474,-5.07681 0.3085,-0.4003 1.4729,-5.47314 2.5875,-11.27299 1.1145,-5.79984 2.2209,-10.70307 2.4584,-10.89609 0.2377,-0.193 3.8459,3.38597 8.0182,7.95325 4.1724,4.5673 7.9693,8.34386 8.4374,8.39235 0.4682,0.0485 5.4679,-0.58605 11.1104,-1.41013 5.6427,-0.82408 10.4735,-1.23481 10.735,-0.91277 0.2616,0.32207 -1.901,4.66425 -4.8057,9.64932 -2.9047,4.98507 -5.3366,9.60293 -5.4041,10.26191 -0.068,0.65897 1.8333,5.17886 4.2242,10.04418 5.8537,11.91234 5.8316,11.73288 1.3219,10.71869 z m 19.7967,-354.33338 c -8.7074,11.99422 -15.8676,22.15433 -15.9115,22.57796 -0.044,0.42363 3.9558,12.16242 8.8882,26.08615 4.9324,13.92375 8.8335,25.39545 8.669,25.49272 -0.1644,0.0973 -11.8948,-3.61607 -26.0675,-8.25181 l -25.7686,-8.42875 -13.4499,10.3028 c -7.3974,5.66652 -17.2629,13.16055 -21.9234,16.65336 l -8.4737,6.35059 v -15.77447 c 0,-8.67596 0.014,-20.99959 0.036,-27.38577 l 0.041,-11.61132 -22.3927,-15.33562 c -12.3161,-8.43463 -22.3671,-15.55916 -22.3357,-15.83238 0.028,-0.27353 11.1591,-4.05419 24.7282,-8.40219 13.5689,-4.34801 25.2351,-8.34202 25.9248,-8.87559 0.6896,-0.53357 4.5507,-12.165 8.58,-25.84761 4.0294,-13.68261 7.6396,-25.15504 8.0227,-25.49417 0.3832,-0.33921 7.75,9.13291 16.3708,21.04916 11.4187,15.78358 16.2629,21.7178 17.8425,21.85713 1.1926,0.10546 13.6229,-0.11029 27.623,-0.47889 14,-0.3685 25.4496,-0.62261 25.4436,-0.56452 -0.01,0.0577 -7.1352,9.919 -15.8426,21.91322 z m -84.8495,431.05095 -17.9597,16.12446 1.9248,14.38551 c 4.0052,29.93572 4.5331,34.26014 4.1781,34.22336 -0.2008,-0.0208 -9.5055,-5.28271 -20.6773,-11.69314 -11.1719,-6.41044 -20.9229,-11.70928 -21.6691,-11.77519 -0.7463,-0.066 -10.881,4.47524 -22.5218,10.09147 -11.6407,5.61623 -21.2738,9.81386 -21.4068,9.32806 -0.2522,-0.92071 7.6872,-39.84092 9.0296,-44.26479 0.6916,-2.27908 -0.9131,-4.28703 -16.1662,-20.22955 -14.0746,-14.71058 -16.6059,-17.79903 -14.9907,-18.28976 1.069,-0.32473 11.7773,-1.63206 23.7963,-2.9052 12.019,-1.27314 22.2315,-2.62245 22.6945,-2.99846 0.463,-0.37603 5.7345,-9.76462 11.7146,-20.86352 5.98,-11.09891 11.27,-20.24837 11.7555,-20.33213 0.4855,-0.0838 5.1735,9.43502 10.418,21.15284 5.2443,11.71783 9.7192,21.52767 9.9441,21.79966 0.2248,0.27199 10.4023,2.28679 22.6166,4.47734 12.2143,2.19055 22.8988,4.35672 23.7435,4.8137 1.1925,0.64518 -2.4782,4.43464 -16.424,16.95534 z m -5.1567,-168.8197 c -1.1851,-0.12278 -18.3785,-3.0623 -38.2076,-6.53229 -32.1036,-5.61794 -36.1961,-6.15703 -37.3573,-4.92106 -0.7173,0.76341 -12.9384,13.27689 -27.158,27.80773 l -25.8539,26.4197 -5.6377,-38.43398 -5.6377,-38.43401 -34.5918,-17.15619 c -19.0255,-9.4359 -34.5561,-17.37868 -34.5123,-17.65062 0.043,-0.27199 15.3677,-7.95866 34.0532,-17.08161 19.6261,-9.5821 34.3919,-17.39301 34.9637,-18.49531 0.5444,-1.04949 3.279,-18.04511 6.077,-37.76804 2.7981,-19.72293 5.4062,-36.1189 5.796,-36.43547 0.3897,-0.31659 11.872,10.91345 25.5161,24.95563 13.644,14.04218 25.6579,26.37327 26.6976,27.40246 1.796,1.77802 3.7734,1.55133 39.7019,-4.5518 20.7964,-3.53266 37.9665,-6.25657 38.1555,-6.05313 0.1892,0.20345 -7.6021,15.36358 -17.314,33.68918 -9.7117,18.32561 -17.7083,33.80622 -17.7699,34.40136 -0.062,0.59515 6.9942,14.59304 15.6798,31.10643 8.6856,16.51339 16.6384,31.80857 17.673,33.98929 l 1.8809,3.96495 z m -85.3748,436.44822 -26.3259,31.8794 1.1807,4.2215 c 0.6494,2.3218 5.9212,20.66 11.7152,40.7516 5.794,20.0915 10.2483,36.5004 9.8983,36.4642 -0.3498,-0.036 -18.1303,-6.9192 -39.5122,-15.2954 l -38.876,-15.2295 -32.0631,21.7033 c -17.6347,11.9369 -33.4205,22.5795 -35.0796,23.6502 l -3.0164,1.9469 0.459,-10.2546 c 0.2524,-5.6401 1.1681,-21.4914 2.0346,-35.2252 0.8667,-13.7338 1.6542,-28.2103 1.7502,-32.1698 l 0.1744,-7.1993 -33.0794,-25.7673 c -31.01723,-24.161 -32.92373,-25.8258 -30.58223,-26.7042 1.37353,-0.5152 19.75783,-5.418 40.85413,-10.895 l 38.3568,-9.9584 13.7723,-38.3374 c 7.5748,-21.0857 14.1749,-38.9325 14.6667,-39.6598 0.6272,-0.9274 7.6639,9.2592 23.5624,34.1098 l 22.6682,35.4321 4.6765,0.2108 c 2.572,0.1159 20.6772,0.7476 40.2336,1.4037 40.0531,1.3438 39.0928,1.2872 38.9573,2.2993 -0.054,0.409 -11.9463,15.0894 -26.4255,32.6231 z m -10.2093,183.8744 c -11.3112,14.8404 -11.6001,15.3411 -10.6774,18.4981 0.5217,1.7847 3.2762,10.2541 6.1211,18.821 2.845,8.5668 5.0713,15.6528 4.9474,15.7466 -0.124,0.094 -8.5947,-2.7456 -18.8239,-6.3098 l -18.5986,-6.4804 -15.5978,11.5398 c -12.3925,9.1685 -15.6876,11.1774 -16.0352,9.7758 -0.2406,-0.9702 -0.1975,-9.7839 0.096,-19.586 l 0.5333,-17.8219 -15.7562,-11.2725 c -8.666,-6.1998 -15.7263,-11.554 -15.6896,-11.8982 0.037,-0.3442 8.4099,-3.1205 18.6076,-6.1696 l 18.5409,-5.5437 5.6463,-18.0895 c 3.1055,-9.9492 5.871,-18.3992 6.1456,-18.7777 0.2746,-0.3786 5.6465,6.6499 11.9374,15.619 10.2754,14.6495 11.7107,16.2839 14.118,16.0768 5.2684,-0.4535 33.247,-0.3478 34.6651,0.1308 1.0515,0.3549 -1.7254,4.649 -10.1798,15.7414 z m 9.7882,-864.93937 -11.8534,2.76588 -2.5767,6.26784 c -1.4171,3.44731 -3.3222,8.33953 -4.2335,10.8716 -0.9114,2.53206 -2.0065,4.56754 -2.4336,4.52329 -0.4271,-0.0442 -3.3993,-4.48822 -6.6051,-9.87547 l -5.8286,-9.79502 -12.3651,-0.69347 -12.3652,-0.69347 1.9711,-2.42126 c 1.0843,-1.33176 4.6856,-5.51832 8.0031,-9.30368 l 6.032,-6.88233 -2.1755,-8.38223 c -3.4869,-13.43416 -3.6379,-14.14239 -3.108,-14.57268 0.3941,-0.32009 15.1578,5.51464 20.6403,8.15711 0.5788,0.27893 5.6085,-2.41769 11.177,-5.99266 l 10.1248,-6.49981 -0.9568,11.95053 -0.9567,11.95053 9.0184,7.27442 c 4.9601,4.00087 9.317,7.56926 9.6818,7.92967 0.3648,0.36042 -4.6709,1.89996 -11.1903,3.42121 z m -103.2402,493.65244 -26.5391,9.99077 -1.8194,7.16902 c -1.0007,3.94296 -3.9244,15.99914 -6.4971,26.79144 -2.5727,10.7923 -4.9584,20.2507 -5.3016,21.0186 -0.4088,0.9147 -6.8209,-6.4118 -18.5903,-21.2414 l -17.9661,-22.63773 -28.1881,2.17173 c -15.50353,1.19446 -28.36923,1.94876 -28.59053,1.67623 -0.2214,-0.27253 6.6064,-11.1634 15.1729,-24.20192 l 15.57543,-23.7064 -10.81813,-26.43699 c -5.9499,-14.54036 -10.6733,-26.55463 -10.4963,-26.69836 0.177,-0.14375 12.6114,3.08291 27.63203,7.17038 l 27.3102,7.43175 13.23,-11.01426 c 7.2763,-6.05787 17.1674,-14.36642 21.9799,-18.46348 7.2966,-6.21164 8.8352,-7.13788 9.2614,-5.57526 0.2812,1.03066 0.9872,13.00727 1.5689,26.61466 0.5818,13.60741 1.1587,25.69498 1.2819,26.86127 0.1726,1.63124 5.7879,5.56789 24.3351,17.06045 13.2611,8.21695 24.0855,15.1849 24.0545,15.48433 -0.031,0.29944 -11.999,5.04027 -26.5956,10.53517 z m -90.2878,426.78513 c -10.5605,-1.0566 -103.34954,-5.5162 -103.94835,-4.9959 -0.42579,0.37 -14.99393,19.1054 -32.37356,41.6343 -17.37964,22.5289 -31.71644,41.0683 -31.85955,41.1987 -0.143,0.1305 -6.33521,-22.6484 -13.76028,-50.6196 -7.42518,-27.9712 -13.66227,-51.0563 -13.8604,-51.3001 -0.19802,-0.2438 -22.50369,-8.3589 -49.56807,-18.0336 -27.06448,-9.6746 -49.33734,-17.7493 -49.49525,-17.9437 -0.1579,-0.1944 19.59078,-13.1811 43.88583,-28.8592 38.60974,-24.9157 44.20814,-28.8456 44.45248,-31.2039 0.15375,-1.484 0.88824,-24.033 1.63214,-50.109 0.74401,-26.076 1.60998,-48.6258 1.92438,-50.1108 0.5547,-2.6194 1.77351,-1.722 40.90434,30.1196 22.1829,18.0507 40.82214,32.8729 41.42059,32.9384 0.59858,0.065 23.37716,-6.417 50.61934,-14.4054 27.24223,-7.9884 49.71863,-14.2936 49.94773,-14.0116 0.229,0.282 -8.0768,22.4683 -18.4573,49.3029 l -18.87371,48.7901 28.73911,41.9847 c 15.80663,23.0916 29.24023,42.8552 29.85253,43.9192 0.9846,1.711 0.8481,1.908 -1.182,1.7049 z m 58.8331,-723.66227 c -9.4447,-0.90342 -35.0689,-3.21894 -56.9426,-5.14558 l -39.77053,-3.503 -35.62546,42.2645 c -19.59407,23.24547 -36.12778,42.668 -36.74167,43.16116 -0.75493,0.60656 -5.07494,-16.98692 -13.35197,-54.37633 -6.72976,-30.40015 -12.34722,-55.43593 -12.48322,-55.63506 -0.1361,-0.19914 -23.75216,-9.90648 -52.48014,-21.57186 -28.72809,-11.6654 -52.291,-21.48495 -52.36202,-21.82123 -0.0711,-0.33629 21.90016,-13.55744 48.82493,-29.38035 l 48.95431,-28.76892 0.87518,-13.67839 c 2.03861,-31.85844 7.02556,-99.48874 7.35609,-99.7572 0.19737,-0.16032 19.44356,16.64134 42.76927,37.33705 23.32569,20.69581 42.6637,37.65487 42.9733,37.68695 0.3096,0.0321 25.1939,-6.02964 55.29843,-13.47048 30.1045,-7.44081 54.8818,-13.34866 55.0606,-13.12846 0.1789,0.2202 -9.7066,23.33091 -21.9677,51.35707 -12.2611,28.0262 -22.3581,51.62858 -22.4377,52.44976 -0.075,0.82163 13.2302,22.95747 29.5772,49.19175 16.347,26.2343 29.7047,47.86353 29.6838,48.06497 -0.021,0.20144 -7.7654,-0.37292 -17.2101,-1.27635 z m -20.0025,144.9991 c -6.1692,-0.24717 -11.5656,-0.28068 -11.9922,-0.0745 -0.4265,0.20622 -3.4864,4.14815 -6.7997,8.75987 -3.3133,4.61171 -6.413,8.5729 -6.8882,8.80266 -0.4753,0.22975 -2.2971,-4.46774 -4.0486,-10.43888 -1.8138,-6.18381 -3.8423,-11.11891 -4.713,-11.46601 -0.8407,-0.33517 -5.2558,-1.75149 -9.8112,-3.14738 -4.5554,-1.39588 -8.8408,-2.92391 -9.5232,-3.39563 -0.8578,-0.593 1.6218,-2.8188 8.0361,-7.21338 10.3896,-7.11801 9.8658,-6.00866 9.7082,-20.56051 -0.053,-4.92119 0.052,-9.06836 0.2334,-9.21594 0.1817,-0.14757 4.4411,2.8935 9.4653,6.75794 l 9.135,7.02627 10.9665,-3.53308 c 6.0317,-1.94318 11.0956,-3.37434 11.2532,-3.18032 0.1576,0.194 -1.2402,4.47731 -3.1063,9.51845 -1.8659,5.04116 -3.4882,10.06065 -3.6051,11.15443 -0.1143,1.10395 2.7143,5.87153 6.3635,10.71282 3.6169,4.79829 6.5686,8.99828 6.5595,9.33335 -0.01,0.33502 -5.064,0.40698 -11.2332,0.1598 z m 4.7488,-442.79241 c -8.4425,7.41946 -15.4123,14.16209 -15.4885,14.98362 -0.075,0.82163 0.9248,10.19961 2.2245,20.8402 1.2996,10.64058 2.214,19.48832 2.0322,19.66161 -0.1818,0.17338 -8.4177,-4.45651 -18.3019,-10.28857 l -17.9712,-10.60377 -16.73943,7.75803 c -9.2066,4.26694 -17.862,8.21146 -19.2342,8.76571 l -2.4947,1.00767 1.3482,-6.24773 c 0.7414,-3.43628 2.8044,-12.72152 4.5845,-20.63371 l 3.2364,-14.38586 -14.3116,-15.32205 c -7.87133,-8.42715 -14.14121,-15.46043 -13.93308,-15.62948 0.20813,-0.16906 9.45738,-1.17735 20.55378,-2.24058 11.0964,-1.06322 20.5378,-2.23257 20.9809,-2.59846 0.4429,-0.3659 4.51183,-7.29367 9.04193,-15.39496 4.5301,-8.10128 9.0423,-16.17084 10.0272,-17.93233 l 1.7907,-3.20281 8.1342,18.80871 c 4.4737,10.34472 8.4075,19.16688 8.7417,19.60465 0.3342,0.43788 9.5819,2.57527 20.5506,4.74992 10.9686,2.17454 20.0857,4.1465 20.2604,4.38205 0.1746,0.23545 -6.5901,6.49867 -15.0326,13.91814 z M 925.85186,1019.3942 c -1.75131,-0.4417 -14.99227,-3.9247 -29.42433,-7.7399 l -26.24014,-6.9369 -22.77524,19.5972 c -12.52626,10.7785 -23.01865,19.2325 -23.3162,18.7868 -0.29765,-0.4457 -1.19058,-13.0927 -1.98438,-28.1045 -0.7938,-15.0117 -1.57056,-28.2608 -1.72632,-29.4423 -0.21867,-1.6593 -6.07979,-5.6784 -25.74788,-17.6559 -14.0056,-8.5291 -25.42887,-15.7714 -25.385,-16.094 0.0435,-0.3226 12.56902,-5.4 27.83359,-11.2833 20.29872,-7.82349 27.92785,-11.21887 28.40167,-12.64038 0.35636,-1.06896 3.16323,-12.76699 6.23757,-25.99559 3.07443,-13.2286 6.03475,-25.74682 6.57862,-27.81825 l 0.98889,-3.76624 19.27411,23.62836 19.27412,23.62837 29.74185,-2.45209 c 16.35798,-1.34864 29.92214,-2.23015 30.14246,-1.95889 0.22032,0.27125 -6.90629,11.7522 -15.83687,25.51321 L 905.651,963.68 l 11.71399,28.051 c 6.44277,15.428 11.70441,28.1444 11.69257,28.2586 -0.0118,0.1142 -1.4544,-0.1537 -3.2057,-0.5954 z M 748.26817,793.13007 c -18.81637,14.59696 -40.46252,31.45648 -48.10265,37.46558 l -13.89114,10.92564 3.39378,58.43757 c 1.86658,32.14068 3.46835,59.43794 3.55949,60.66064 l 0.16573,2.223 -3.86484,-2.4879 c -2.12566,-1.3683 -24.64227,-16.5695 -50.03691,-33.78047 -25.39463,-17.21094 -46.5846,-31.33536 -47.0888,-31.3876 -0.50421,-0.0522 -26.08036,9.72636 -56.83589,21.73021 -30.75554,12.00386 -56.03253,21.68566 -56.17108,21.51506 -0.13857,-0.1706 7.13549,-25.86179 16.16455,-57.09151 9.02907,-31.22971 16.48877,-57.47896 16.57712,-58.33166 0.0883,-0.8527 -16.91096,-22.35795 -37.77622,-47.78944 -20.86527,-25.43149 -37.90621,-46.53482 -37.86876,-46.89627 0.0375,-0.36146 26.05326,-1.47536 57.81291,-2.47536 31.75965,-0.99998 58.96113,-1.92597 60.44772,-2.05775 2.43297,-0.21567 5.95985,-5.32779 35.31476,-51.18794 17.93653,-28.02159 32.92448,-50.53213 33.30657,-50.02342 0.38209,0.50871 9.7492,26.06689 20.8158,56.79597 11.0666,30.72907 20.17391,55.97457 20.23845,56.1011 0.0646,0.12656 26.0843,7.01079 57.82168,15.29835 31.73731,8.28753 58.27236,15.23655 58.96676,15.44224 0.6943,0.2057 -14.13276,12.31697 -32.94903,26.91396 z m 15.01268,-368.4145 c -7.88952,0.15245 -14.72216,0.45974 -15.18366,0.68286 -0.4615,0.22312 -4.41734,5.99358 -8.79077,12.82325 l -7.95168,12.41756 -4.93682,-13.58107 c -2.71526,-7.46959 -5.02837,-13.91026 -5.14025,-14.31263 -0.11189,-0.40235 -6.14673,-2.31667 -13.41075,-4.25403 -7.26402,-1.93737 -13.85624,-3.80895 -14.64938,-4.15908 -0.98502,-0.43484 2.34712,-3.5197 10.51336,-9.73315 l 11.95545,-9.0966 -0.53182,-11.50184 c -0.29249,-6.32612 -0.63542,-13.20238 -0.76204,-15.28069 l -0.23026,-3.77865 11.99658,8.26511 c 6.59811,4.54587 12.7112,8.32778 13.58462,8.4042 0.87344,0.0764 7.45156,-2.17647 14.61805,-5.0065 7.16646,-2.83003 13.09493,-5.0319 13.17424,-4.89299 0.0791,0.13889 -1.76685,6.61444 -4.10261,14.39013 l -4.24685,14.13761 9.27828,11.53391 c 5.10303,6.34364 9.2518,11.78848 9.21956,12.09966 -0.0322,0.31116 -6.51364,0.69049 -14.40325,0.84294 z M 662.5933,1197.5223 c -9.4339,1.661 -19.30794,3.4226 -21.94232,3.9147 l -4.78977,0.8946 -8.75235,19.4359 c -4.81379,10.6898 -9.08949,19.7405 -9.50155,20.1127 -0.41206,0.3722 -5.46492,-8.1704 -11.22856,-18.9837 l -10.47938,-19.6603 -22.2303,-2.5793 -22.23031,-2.5792 15.34951,-15.9143 c 8.44223,-8.7528 15.37847,-16.1938 15.41387,-16.5355 0.0354,-0.3417 -1.85157,-10.0779 -4.19327,-21.636 -2.34171,-11.5581 -3.90911,-21.1066 -3.48311,-21.2189 0.42599,-0.1123 9.48144,4.052 20.12323,9.2539 l 19.34871,9.458 17.28196,-9.7916 c 9.50509,-5.3854 18.37501,-10.3567 19.71093,-11.0473 l 2.42897,-1.2557 -2.24896,16.2437 c -1.23693,8.9341 -2.73743,18.9076 -3.33446,22.1634 l -1.08548,5.9196 16.5273,15.106 c 9.09001,8.3083 16.51393,15.235 16.4976,15.3926 -0.0163,0.1577 -7.74835,1.6457 -17.18226,3.3067 z m -58.14076,-853.69941 -14.43152,17.42746 5.92065,21.2897 c 3.25636,11.70934 5.72497,21.44863 5.48582,21.64288 -0.23915,0.19426 -9.61475,-3.37487 -20.83467,-7.93138 l -20.39985,-8.28458 -7.72189,5.08109 c -4.24704,2.79459 -12.61522,8.31242 -18.59596,12.26186 l -10.87406,7.18077 -0.30088,-3.81447 c -0.16547,-2.09798 0.18805,-8.78518 0.78562,-14.86045 0.59757,-6.07529 1.15166,-14.49233 1.23132,-18.70458 l 0.14481,-7.65855 -17.05176,-13.52517 c -9.37846,-7.4389 -17.02383,-13.79473 -16.98971,-14.12407 0.0341,-0.32923 9.69931,-3.00967 21.47819,-5.95639 l 21.41615,-5.35759 7.64605,-20.42942 c 4.20534,-11.23624 7.91002,-20.64063 8.23264,-20.89876 0.32262,-0.25813 5.8066,7.94359 12.18661,18.22603 l 11.60003,18.69537 3.98097,0.39033 c 2.18952,0.21479 12.42817,0.73319 22.75253,1.15229 10.32435,0.4192 18.77129,0.76403 18.77098,0.76621 -8e-5,-1e-5 -6.49475,7.84646 -14.43209,17.43162 z m -48.73751,245.3725 c -8.02274,-1.67133 -53.84539,-10.02124 -56.50889,-10.2972 -2.10609,-0.2182 -6.27196,3.48854 -24.79491,22.06224 -12.24494,12.27848 -22.54225,22.29183 -22.88292,22.25189 -0.34064,-0.0403 -2.35258,-13.48134 -4.47091,-29.86978 -2.11833,-16.38844 -4.05883,-30.65141 -4.31223,-31.69548 -0.32953,-1.35775 -8.46631,-5.99152 -28.57349,-16.27219 -15.46202,-7.90562 -28.42747,-14.52368 -28.81212,-14.70678 -0.38465,-0.18311 9.85302,-5.34716 22.75037,-11.47566 12.89734,-6.1285 26.13025,-12.49658 29.40646,-14.1513 l 5.95675,-3.00856 4.03325,-26.24266 c 2.21828,-14.43347 4.57263,-28.69325 5.23189,-31.68843 l 1.19864,-5.44577 18.58375,19.55465 c 10.22106,10.75507 20.24339,21.23747 22.27184,23.29426 l 3.68807,3.73958 31.63719,-5.07075 c 17.40044,-2.78891 31.73618,-4.98534 31.85719,-4.88094 0.12099,0.10442 -6.69395,12.95293 -15.14435,28.55232 l -15.36434,28.36251 14.51734,28.4434 c 7.98454,15.64387 14.49228,28.68528 14.46165,28.98093 -0.0306,0.29564 -2.15923,0.0993 -4.73022,-0.43629 z m -127.6548,559.82851 -9.97875,7.806 0.8138,12.6719 c 0.44759,6.9696 0.67198,12.7806 0.49863,12.9133 -0.17333,0.1328 -4.86884,-2.8999 -10.43444,-6.7392 -5.56561,-3.8393 -10.61617,-7.0321 -11.22346,-7.095 -0.60729,-0.063 -6.03126,1.9057 -12.05327,4.3747 -6.02201,2.4691 -11.16673,4.2213 -11.43272,3.8938 -0.26598,-0.3275 1.08315,-5.9328 2.99809,-12.4562 l 3.48171,-11.8609 -8.33768,-10.3088 c -4.58572,-5.6699 -7.89904,-10.2623 -7.36291,-10.2053 0.53617,0.057 6.46277,-0.06 13.17035,-0.2595 l 12.19558,-0.3632 6.50905,-10.3597 c 3.57997,-5.6979 6.82337,-10.5137 7.20756,-10.7019 0.38419,-0.1882 2.6201,5.0053 4.9687,11.541 l 4.27018,11.8832 6.22458,1.7172 c 3.42351,0.9445 8.43101,2.2539 11.12776,2.9099 2.69676,0.656 5.45057,1.5617 6.11959,2.0127 0.82779,0.558 -1.97163,3.3138 -8.76235,8.626 z m -20.24688,152.0692 c -5.34089,6.1857 -9.76628,11.783 -9.83419,12.4385 -0.0679,0.6554 1.50907,7.4457 3.50441,15.0895 1.99533,7.6437 3.44337,14.0476 3.21788,14.2307 -0.2255,0.1832 -6.16357,-2.0629 -13.19571,-4.9912 -7.03213,-2.9283 -13.35025,-5.5054 -14.04024,-5.7268 -0.68999,-0.2214 -7.1301,3.4211 -14.31135,8.0945 l -13.0568,8.497 0.7766,-8.7639 c 0.42712,-4.8202 0.83112,-11.9945 0.89776,-15.9429 l 0.12117,-7.1789 -11.87211,-9.716 -11.87211,-9.7159 15.30392,-3.6266 15.30393,-3.6266 4.66931,-12.306 c 7.30421,-19.2502 5.60028,-18.8739 15.04349,-3.323 l 8.19541,13.4961 4.21457,-0.01 c 6.16449,-0.01 26.71366,1.1657 26.67653,1.524 -0.0175,0.1686 -4.40157,5.3675 -9.74247,11.5531 z M 383.81709,760.14686 c -3.08433,1.03231 -22.03728,7.31892 -42.11768,13.97024 l -36.5098,12.09331 -12.17635,42.11808 c -6.69698,23.16494 -12.3107,42.23003 -12.47494,42.36687 -0.16423,0.13683 -11.90663,-15.47905 -26.09422,-34.70197 -14.1876,-19.22293 -26.28132,-35.1899 -26.87493,-35.48216 -0.59361,-0.29227 -20.60029,0.11937 -44.45929,0.91474 -23.859,0.79538 -43.45145,1.35977 -43.53876,1.25421 -0.0873,-0.10556 11.42944,-16.33518 25.59282,-36.06579 l 25.75159,-35.87385 -14.86989,-41.26741 c -8.17843,-22.69709 -14.70772,-41.39914 -14.50953,-41.56011 0.19819,-0.16099 19.15087,5.67855 42.11706,12.97675 l 41.75672,13.26943 22.44885,-17.48395 c 12.34687,-9.61618 28.01781,-21.83838 34.82433,-27.16043 6.80651,-5.32207 12.50064,-9.48241 12.65362,-9.24522 0.15298,0.23719 0.366,20.09858 0.47338,44.13641 0.10736,24.03784 0.31511,43.85277 0.46165,44.03318 0.14655,0.18042 16.08167,11.05982 35.41139,24.17645 19.32972,13.11663 35.72925,24.25474 36.4434,24.75135 0.89928,0.62536 -0.42554,1.47996 -4.30942,2.77987 z m 15.72413,-516.9599 c -0.43667,0.21193 -4.80386,5.12342 -9.70487,10.91448 l -8.91093,10.52915 4.01282,14.91405 c 2.20704,8.20272 4.00519,14.98765 3.99588,15.07747 -0.009,0.0895 -6.55679,-2.52686 -14.54997,-5.815 l -14.53304,-5.97843 -12.74854,8.29638 c -7.0117,4.56301 -13.01824,8.26844 -13.34788,8.23428 -0.32963,-0.0342 0.11511,-6.95798 0.98835,-15.38636 l 1.58767,-15.32418 -12.14273,-9.78475 c -6.6785,-5.38161 -11.68324,-10.00689 -11.12163,-10.27846 0.5616,-0.27147 7.22116,-1.9473 14.79901,-3.72403 7.57786,-1.77673 13.93782,-3.34656 14.13324,-3.48848 0.19543,-0.14191 2.75794,-6.4455 5.69448,-14.00804 2.93654,-7.56254 5.54953,-13.92092 5.80666,-14.12973 0.41187,-0.33454 6.7157,9.39561 13.98395,21.58453 l 2.4461,4.10212 15.31348,0.87046 c 10.69692,0.6081 15.28007,1.19283 15.20268,1.93983 -0.0609,0.58815 -0.46807,1.24278 -0.90473,1.45471 z M 290.32995,1060.9391 c -13.59623,19.8797 -24.78419,36.6966 -24.86214,37.3708 -0.0779,0.6743 7.01849,19.6712 15.76987,42.2155 8.75138,22.5444 15.76499,41.0903 15.58579,41.2132 -0.1792,0.1229 -19.55505,-5.4194 -43.05746,-12.3162 l -42.73166,-12.5397 -35.07521,28.4788 c -19.29136,15.6634 -35.00541,27.8102 -34.92008,26.9928 0.43258,-4.1461 -2.4026,-87.3569 -3.00972,-88.3263 -0.38947,-0.6219 -17.26734,-11.8288 -37.50637,-24.9043 -20.239027,-13.0754 -36.521187,-24.0133 -36.182567,-24.3064 0.33862,-0.2931 19.24192,-7.2042 42.007317,-15.3579 l 41.39165,-14.825 11.16407,-42.014 c 6.14024,-23.1077 11.35907,-42.6545 11.59742,-43.4375 0.24706,-0.8116 12.23704,13.8986 27.89131,34.219 21.5644,27.9923 27.89787,35.5937 29.50746,35.4148 5.48304,-0.6095 85.88658,-4.6734 86.47438,-4.3708 0.372,0.1916 -10.44783,16.6135 -24.04406,36.4932 z M 276.08962,464.79358 c -17.43493,-1.39902 -35.51405,-2.6522 -40.17581,-2.78482 l -8.47593,-0.24113 -24.28329,30.17481 c -13.35581,16.59615 -24.73647,30.18239 -25.29038,30.19165 -0.5539,0.009 -5.21718,-17.18025 -10.36287,-38.19889 -5.14567,-21.01866 -9.46344,-38.29324 -9.59503,-38.38796 -0.13159,-0.0948 -15.69495,-6.01001 -34.58523,-13.14506 -18.89028,-7.13507 -35.769197,-13.51885 -37.508727,-14.18619 l -3.16275,-1.21336 33.584457,-20.71419 c 18.47146,-11.3928 33.93506,-20.97119 34.36355,-21.2853 0.4285,-0.31411 1.64862,-18.23509 2.71138,-39.82441 1.06276,-21.58933 2.21467,-39.48269 2.55979,-39.76301 0.34513,-0.28033 13.82515,10.68121 29.9556,24.35895 16.13045,13.67774 30.02603,25.12207 30.87904,25.43193 0.85303,0.30976 18.49145,-4.0422 39.1965,-9.67102 20.70505,-5.62892 37.81182,-10.02963 38.01505,-9.77945 0.20323,0.25028 -6.40232,16.94986 -14.67898,37.11024 l -15.04848,36.65529 21.59583,33.04251 c 11.87771,18.17338 21.68817,33.43189 21.801,33.90781 0.11283,0.47591 -14.05979,-0.27936 -31.49472,-1.6784 z m -172.53559,75.2423 c -7.142037,5.1243 -13.548107,9.88661 -14.235697,10.5829 -0.92667,0.93839 -1.14992,5.04873 -0.8627,15.88376 0.21312,8.03977 0.17169,15.53986 -0.0921,16.66687 -0.43113,1.84214 -1.79974,1.06938 -13.54957,-7.6505 -7.1885,-5.33479 -13.57895,-9.76889 -14.201,-9.85357 -0.62204,-0.0847 -8.0619,2.30322 -16.533,5.30642 -8.47111,3.0032 -15.53781,5.29318 -15.70378,5.08884 -0.16597,-0.20433 2.11229,-7.63786 5.0628,-16.51894 l 5.36458,-16.14742 -10.4315,-13.71383 c -5.73732,-7.5426 -10.26975,-13.72985 -10.07205,-13.74945 0.19769,-0.0196 8.01287,-0.006 17.36708,0.0293 l 17.00762,0.0649 9.54918,-13.79942 c 5.25203,-7.58969 9.82106,-13.78453 10.1534,-13.76632 0.33233,0.0182 2.9108,7.26254 5.72993,16.0985 l 5.12572,16.06538 5.00692,1.56492 c 2.75381,0.86071 10.24779,3.13224 16.653287,5.04783 l 11.64635,3.48292 z m -36.313507,-332.78471 -9.15268,12.47088 1.75248,5.36144 c 0.96388,2.94883 3.38773,9.82413 5.38633,15.27863 1.99861,5.45441 3.2737,9.98534 2.83354,10.06882 -0.44015,0.0834 -7.49768,-2.04224 -15.68339,-4.72369 l -14.88311,-4.87533 -12.93874,10.05716 -12.93876,10.05725 -0.21984,-3.28475 c -0.1209,-1.80668 -0.16321,-9.2187 -0.094,-16.47108 l 0.12582,-13.18635 -13.4397803,-9.22243 c -7.39188,-5.07237 -13.2669097,-9.36286 -13.0556097,-9.5345 0.2113,-0.17164 7.1277797,-2.52449 15.3699597,-5.2287 l 14.9857803,-4.91652 4.59942,-15.28258 c 2.57394,-8.55248 5.01504,-15.07253 5.54319,-14.80548 0.68066,0.34408 16.57622,21.47509 18.60772,24.73651 0.1141,0.18314 7.24077,0.12979 15.83705,-0.11855 17.97781,-0.51947 16.88469,-0.54637 16.67718,0.41094 -0.088,0.4056 -4.27856,6.34939 -9.31254,13.20833 z m -63.9596403,547.8264 -11.91087,7.66197 0.0337,5.18243 c 0.0186,2.85034 -0.08,9.15288 -0.21898,14.00564 l -0.25273,8.82321 -10.9691297,-8.85382 -10.96912,-8.85384 -12.9777,3.75062 c -7.13773,2.06284 -13.11736,3.57866 -13.28806,3.3685 -0.27783,-0.34205 7.47503,-21.28267 8.97023,-24.22877 0.333,-0.65611 -2.9324,-6.31917 -7.25642,-12.58458 l -7.86185,-11.39165 3.11,-0.29371 c 1.71049,-0.16152 6.9752,0.0617 11.69934,0.49601 4.72414,0.43435 9.7047,0.59901 11.06791,0.36594 1.74642,-0.29857 4.86193,-3.52505 10.54717,-10.92284 4.43774,-5.7745 8.2633,-10.2594 8.50126,-9.96645 0.23795,0.29297 1.96497,6.26332 3.83783,13.26745 l 3.40518,12.73479 13.2215397,4.88857 13.2215203,4.88856 z m -56.4611297,463.09813 -6.31569,8.6952 3.54089,9.345 c 1.94747,5.1397 3.5006,9.7336 3.45138,10.2086 -0.0492,0.4751 -4.57228,-0.6264 -10.05125,-2.4478 l -9.96178,-3.3115 -3.25719,2.3274 c -1.79145,1.2801 -5.76955,4.2597 -8.84022,6.6215 l -5.58302,4.2941 -0.10002,-4.8645 c -0.055,-2.6755 -0.10817,-7.6048 -0.11812,-10.9538 l -0.0181,-6.0893 -7.65157,-5.163 c -4.208363,-2.8396 -8.177153,-5.6667 -8.819543,-6.2823 -0.85116,-0.8157 1.62751,-2.0382 9.138043,-4.5068 l 10.30602,-3.3875 2.85133,-10.1839 c 1.56822,-5.6012 3.11436,-10.1534 3.43585,-10.1161 0.32149,0.037 3.33306,3.9381 6.69237,8.6685 5.1345,7.2301 6.51703,8.5764 8.67557,8.4482 7.91795,-0.4701 18.4191,-0.6722 18.66095,-0.3592 0.15388,0.1991 -2.56227,4.2749 -6.0359,9.0572 z m 15.30618,-317.91497 c -13.86658,11.55752 -29.42693,24.69635 -34.57855,29.19741 l -9.36659,8.18376 4.27227,44.5721 c 2.34975,24.5147 4.1521,44.6961 4.00524,44.8476 -0.14686,0.1515 -17.29769,-10.3343 -38.112953,-23.3018 -20.81525,-12.9674 -38.24427,-23.6184 -38.73113,-23.6689 -0.48686,-0.05 -19.31347,7.9103 -41.8369,17.6905 -22.52343,9.7803 -41.05154,17.6638 -41.17358,17.519 -0.20427,-0.2423 19.33214,-79.171 21.03608,-84.98754 0.67768,-2.3133 -2.18732,-5.88324 -29.45049,-36.69681 l -30.20119,-34.13421 45.41803,-3.19276 c 24.97993,-1.75602 45.4596,-3.26867 45.51038,-3.36144 3.32855,-6.08061 44.93815,-76.20143 45.49902,-76.67532 0.45394,-0.38353 8.42155,18.08591 17.70581,41.04318 l 16.88047,41.74052 43.199413,9.63074 c 23.75967,5.2969 43.63527,9.84438 44.16801,10.10551 0.53273,0.26112 -10.37677,9.93093 -24.24334,21.48846 z M 9.3890327,434.62236 c -1.37529,0.44751 -13.45417,3.92195 -26.8419497,7.72095 l -24.34143,6.90731 -8.71612,25.90589 c -4.79387,14.24825 -9.15167,25.7431 -9.684,25.54412 -0.53233,-0.19899 -7.59285,-10.23374 -15.69006,-22.29946 -12.91346,-19.24248 -15.07484,-21.97421 -17.59263,-22.23507 -3.60769,-0.37378 -46.451853,-0.96733 -50.356743,-0.69763 -2.42602,0.16756 -2.7561,-0.067 -2.05049,-1.45732 0.46254,-0.91137 8.12406,-10.9335 17.02563,-22.27139 l 16.18466,-20.61435 -8.25141,-26.32926 c -4.53827,-14.48108 -8.1084,-26.45778 -7.93362,-26.61485 0.17478,-0.15708 11.65547,3.85994 25.51266,8.92672 13.857183,5.06677 25.583263,9.25256 26.057953,9.30174 0.47469,0.0492 10.86077,-7.01416 23.08018,-15.69631 12.21942,-8.68216 22.47037,-15.76345 22.77991,-15.73622 0.30956,0.027 0.0969,12.32939 -0.47255,27.33812 -0.6483,17.08697 -0.6485,27.73635 -5.5e-4,28.48631 0.56915,0.65874 9.86275,7.69006 20.65245,15.62513 25.50354,18.75609 23.72754,17.19027 20.6381097,18.19557 z M -154.69699,1193.1264 c -6.69614,-0.3318 -17.94311,-1.201 -24.99325,-1.9314 l -12.81843,-1.3281 -16.01498,19.6557 c -14.6177,17.9408 -16.07113,19.4349 -16.65856,17.1244 -0.35398,-1.3922 -2.94276,-12.27 -5.75286,-24.173 -2.81009,-11.903 -5.23354,-21.8342 -5.38545,-22.0695 -0.1519,-0.2352 -10.39716,-4.3506 -22.76724,-9.1453 -12.37008,-4.7947 -22.90036,-8.9027 -23.40064,-9.1289 -0.50027,-0.2262 8.82721,-6.333 20.72774,-13.5706 l 21.63733,-13.1593 0.54084,-10.616 c 1.62655,-31.9274 2.20518,-39.1008 3.11661,-38.6368 0.52525,0.2673 9.16671,7.5355 19.20324,16.1515 l 18.24827,15.6655 23.77639,-6.3105 c 13.07701,-3.4708 23.94197,-6.1067 24.14434,-5.8575 0.20238,0.2491 -3.89285,10.6846 -9.10049,23.19 l -9.46845,22.737 12.38116,19.2758 c 6.80964,10.6018 12.91624,20.0532 13.57021,21.0032 1.07563,1.5625 0.0279,1.6697 -10.98578,1.1238 z m 71.090763,-923.25836 -9.35435,8.24429 1.34359,12.35584 c 0.73897,6.79574 1.17181,12.49539 0.96187,12.66587 -0.20995,0.17057 -5.18116,-2.61547 -11.047123,-6.19122 l -10.66541,-6.50124 -11.63168,5.27711 c -6.39741,2.90237 -11.7499,5.26485 -11.89441,5.24988 -0.14451,-0.015 0.76496,-4.33174 2.02103,-9.5928 3.8832,-16.26482 4.08786,-15.27134 -5.21971,-25.33792 -5.63223,-6.09146 -7.7069,-8.97643 -6.73988,-9.37198 0.76839,-0.31438 6.02798,-0.88812 11.68797,-1.27489 5.65997,-0.38677 10.79024,-0.94465 11.40056,-1.23972 0.61034,-0.29507 3.66304,-5.00616 6.78379,-10.46904 3.12074,-5.46288 6.04551,-10.24755 6.49945,-10.63241 0.45395,-0.38497 2.96609,4.48283 5.58254,10.8174 5.351003,12.95512 4.068163,11.96203 19.003873,14.71136 4.61206,0.84901 8.88882,1.88145 9.50391,2.29433 0.70797,0.47529 -2.31413,3.77593 -8.23602,8.99514 z m -91.366013,430.21622 c -10.91954,3.39745 -15.99511,5.47016 -16.65339,6.80078 -0.52078,1.05267 -2.87992,8.38669 -5.24254,16.29783 -2.36262,7.91114 -4.57974,14.35446 -4.92693,14.31849 -0.54944,-0.0569 -11.27303,-14.6524 -17.68577,-24.07146 l -2.19506,-3.2241 -16.94217,0.39683 c -9.31819,0.21825 -17.07821,0.22893 -17.24448,0.0237 -0.16628,-0.20521 4.12743,-6.37994 9.54157,-13.72161 5.41414,-7.34168 9.88271,-13.72325 9.93017,-14.18127 0.0474,-0.45802 -2.32346,-7.80699 -5.2687,-16.33106 -2.94525,-8.52405 -5.20721,-15.61832 -5.02658,-15.76503 0.18062,-0.14671 7.41323,2.06981 16.07246,4.9256 8.65924,2.85577 15.939,5.21252 16.17724,5.23721 0.23824,0.0247 6.43965,-4.51188 13.78092,-10.08124 8.44434,-6.40621 13.53701,-9.66415 13.86295,-8.86859 0.28336,0.69165 0.37718,8.10925 0.20851,16.48356 -0.16868,8.37431 -0.079,15.66783 0.19923,16.20782 0.27826,0.54 6.5216,5.14321 13.8741,10.22935 7.35249,5.08615 13.34046,9.51502 13.30659,9.84194 -0.0339,0.32691 -7.12952,2.79346 -15.76812,5.48123 z"
       style="fill:#000000" />
  </g>
</svg>
