<?xml version="1.0" encoding="UTF-8" standalone="no"?>
<svg
   xmlns:dc="http://purl.org/dc/elements/1.1/"
   xmlns:cc="http://creativecommons.org/ns#"
   xmlns:rdf="http://www.w3.org/1999/02/22-rdf-syntax-ns#"
   xmlns:svg="http://www.w3.org/2000/svg"
   xmlns="http://www.w3.org/2000/svg"
   xmlns:sodipodi="http://sodipodi.sourceforge.net/DTD/sodipodi-0.dtd"
   xmlns:inkscape="http://www.inkscape.org/namespaces/inkscape"
   inkscape:version="1.0 (4035a4f, 2020-05-01)"
   sodipodi:docname="ryanlerch-simple-sun-motif.png"
   viewBox="0 0 800 800"
   height="800"
   width="800"
   id="svg5877"
   version="1.1">
  <metadata
     id="metadata5883">
    <rdf:RDF>
      <cc:Work
         rdf:about="">
        <dc:format>image/svg+xml</dc:format>
        <dc:type
           rdf:resource="http://purl.org/dc/dcmitype/StillImage" />
        <dc:title></dc:title>
      </cc:Work>
    </rdf:RDF>
  </metadata>
  <defs
     id="defs5881" />
  <sodipodi:namedview
     inkscape:current-layer="g5885"
     inkscape:window-maximized="0"
     inkscape:window-y="24"
     inkscape:window-x="0"
     inkscape:cy="400"
     inkscape:cx="400"
     inkscape:zoom="0.74"
     showgrid="false"
     id="namedview5879"
     inkscape:window-height="776"
     inkscape:window-width="1280"
     inkscape:pageshadow="2"
     inkscape:pageopacity="0"
     guidetolerance="10"
     gridtolerance="10"
     objecttolerance="10"
     borderopacity="1"
     bordercolor="#666666"
     pagecolor="#ffffff" />
  <g
     id="g5885"
     inkscape:label="Image"
     inkscape:groupmode="layer">
    <path
       id="path5889"
       d="m 260.68183,749.21035 c -0.78901,-0.78901 29.2834,-90.58215 40.19493,-120.01795 6.19558,-16.71365 17.56208,-44.15546 24.5477,-59.26477 3.51056,-7.59305 4.34066,-10.67027 3.35401,-12.43335 -0.72116,-1.28861 -1.10619,-2.47953 -0.85563,-2.64648 6.32019,-4.21126 8.01616,-4.80197 10.29118,-3.58442 4.08578,2.18665 16.16437,16.12664 16.16437,18.65544 0,1.2939 1.11623,3.36273 2.48051,4.59738 2.4169,2.18728 2.41333,2.38058 -0.13935,7.53999 -1.44091,2.91233 -3.38149,5.29516 -4.3124,5.29516 -1.63509,0 -9.73336,11.77109 -19.91968,28.95393 -7.90389,13.33271 -27.62076,54.85012 -40.07229,84.3794 -12.55699,29.77936 -15.33935,35.13303 -22.69408,43.66667 -4.60207,5.33973 -7.1753,6.72296 -9.03927,4.859 z m 238.03364,-90.19233 c -7.4216,-12.2922 -14.90432,-29.66792 -25.57349,-59.38448 -5.71644,-15.92187 -11.75824,-32.11642 -13.4262,-35.98788 -1.66798,-3.87146 -3.09955,-8.97146 -3.18128,-11.33334 -0.12934,-3.7364 0.54381,-4.63965 5.18098,-6.95254 3.81194,-1.90128 8.02388,-2.66064 14.79132,-2.66667 10.99692,-0.009 13.87159,1.64795 13.87159,7.99932 0,3.11847 0.70171,4.5314 2.48157,4.99685 2.12906,0.55676 2.35463,1.48548 1.58791,6.53759 -0.49152,3.23876 -1.30984,6.56203 -1.81848,7.38503 -0.50864,0.823 0.54932,7.70105 2.35103,15.28457 4.81194,20.25376 7.38674,39.28659 8.31376,61.45488 0.45232,10.81667 0.55808,19.66667 0.23502,19.66667 -0.32306,0 -2.48924,-3.15 -4.81373,-7 z M 110.26381,631.73024 c 4.70365,-4.3591 8.18597,-8.51802 7.7385,-9.24205 -0.90304,-1.46113 23.72885,-33.77268 41.52396,-54.47017 17.06903,-19.85299 36.38204,-39.44972 52.85212,-53.62855 8.06667,-6.94447 15.10225,-13.78225 15.63464,-15.19509 1.84437,-4.89463 5.22269,-4.64191 9.87381,0.73864 3.383,3.91357 4.20079,5.87213 3.63438,8.70422 -0.46499,2.32491 0.30225,5.67948 2.10892,9.22084 1.61864,3.17282 2.39009,6.27226 1.79402,7.20779 -3.08064,4.83503 -104.20865,100.8096 -106.31637,100.89853 -0.69883,0.0295 1.07295,-2.34638 3.93727,-5.27972 7.72725,-7.91342 2.64481,-6.79138 -7.45176,1.64511 -6.21876,5.19628 -7.73471,6.03692 -5.93599,3.29172 1.3286,-2.02769 2.15227,-3.95008 1.83037,-4.27197 -0.32188,-0.3219 -5.35316,2.59573 -11.1806,6.4836 -17.35048,11.57564 -19.03332,12.22862 -10.04327,3.8971 z m 219.09438,-97.04216 c -19.78669,-3.58672 -42.94744,-12.82494 -51.64647,-20.60044 -1.46666,-1.31096 -7.63914,-4.94148 -13.71662,-8.06782 -14.07359,-7.23968 -22.60308,-14.94316 -30.40459,-27.46016 -6.83128,-10.96035 -22.3814,-46.50728 -23.56777,-53.87498 l -0.75146,-4.66666 2.22023,4.9932 c 1.22112,2.74626 2.73585,4.99626 3.36609,5 1.62956,0.009 0.5192,-6.04966 -4.98622,-27.21028 -4.14047,-15.91427 -4.82635,-20.65119 -4.8265,-33.33334 -2e-4,-18.5308 4.61275,-57.56996 8.02992,-67.95673 1.4187,-4.31227 2.26554,-8.34841 1.88184,-8.96924 -2.13428,-3.45333 6.46564,-24.32661 10.84479,-26.32188 1.784,-0.81284 3.24363,-2.55012 3.24363,-3.86061 0,-2.63398 1.18274,-4.86539 12.28869,-23.18435 9.56679,-15.78016 14.02973,-20.29629 18.85932,-19.08415 4.23415,1.06271 4.66916,3.26071 0.64533,3.26071 -2.62194,0 -2.69549,0.20412 -0.84065,2.33333 1.11797,1.28334 1.76083,3.08375 1.42857,4.00091 -1.43629,3.96483 3.93278,-0.38937 6.3693,-5.16535 1.45033,-2.84289 3.55205,-5.16889 4.67048,-5.16889 2.24861,0 8.57896,-5.79211 8.57896,-7.84955 0,-0.71724 -1.23159,-1.69497 -2.73687,-2.17273 -3.88244,-1.23224 -1.00209,-4.36705 4.50283,-4.90065 3.32377,-0.32218 4.17798,-0.98631 3.97333,-3.0892 -0.18087,-1.85852 1.34968,-3.60563 4.99825,-5.70548 2.89243,-1.66467 10.48659,-7.58463 16.87591,-13.15547 14.60312,-12.73245 19.30773,-15.83693 29.89833,-19.72932 4.66852,-1.71584 12.13532,-4.66452 16.5929,-6.55263 13.42572,-5.68677 30.16881,-7.90537 53.89532,-7.14157 23.48833,0.75615 35.71981,3.62144 55.97124,13.11157 14.02581,6.57272 28.42557,14.566 27.64556,15.346 -0.3215,0.3215 -8.3168,-1.5007 -17.76734,-4.04934 -47.33501,-12.76542 -72.30792,-14.11876 -97.1828,-5.26658 -5.13333,1.82679 -12.61312,4.49607 -16.62176,5.93174 -8.02888,2.87548 -14.71157,8.38974 -14.71157,12.13933 0,1.32947 -0.45,2.47021 -1,2.535 -0.55,0.0648 -3.98191,0.3442 -7.62645,0.62095 -4.63783,0.35216 -7.23872,1.30149 -8.66667,3.16332 -2.50988,3.27253 -10.64429,6.76461 -15.75739,6.76461 -7.81445,0 -37.77148,29.29193 -53.26264,52.08013 -5.79881,8.5303 -15.42836,27.95615 -14.3785,29.00599 1.05297,1.05297 5.95342,-5.04572 5.99533,-7.46129 0.0163,-0.9397 0.92965,-2.05388 2.02965,-2.47599 1.1,-0.42212 2,-1.52981 2,-2.46156 0,-0.93176 0.9,-2.44103 2,-3.35395 2.49419,-2.07 2.49586,-1.51242 0.0133,4.42931 -1.09272,2.61523 -1.63252,5.67811 -1.19956,6.80639 0.94608,2.46542 -13.81974,26.45729 -15.60434,25.35434 -1.73369,-1.07148 -3.87602,5.32255 -3.87602,11.56843 0,2.925 -1.8,12.25072 -4,20.72381 -2.2,8.4731 -4.02138,17.59086 -4.0475,20.26168 -0.0261,2.67082 -0.85604,8.23739 -1.84426,12.37015 -1.80938,7.56676 -1.46839,14.48589 0.71386,14.48589 0.64784,0 1.1779,1.5 1.1779,3.33334 0,1.83333 -0.51944,3.33333 -1.15431,3.33333 -1.86555,0 0.68387,10.96405 2.82849,12.16425 2.1879,1.2244 5.61174,11.9878 4.68702,14.73438 -0.32739,0.97242 0.224,2.37212 1.22532,3.11045 1.00132,0.73832 3.28733,6.67361 5.08004,13.18952 5.34982,19.44491 14.33884,35.28853 29.08252,51.25951 5.34062,5.78521 18.48169,13.04736 20.90237,11.55129 1.09485,-0.67665 3.86161,1.34007 7.97147,5.81045 3.61536,3.93254 7.44882,6.84682 9.00634,6.84682 1.49146,0 4.86736,0.90068 7.50203,2.0015 3.49887,1.46192 11.66681,2.14932 30.29756,2.54979 23.48633,0.50483 26.55971,0.29343 38.79081,-2.66819 7.30595,-1.76904 16.18511,-3.21644 19.73147,-3.21644 4.17855,0 10.7008,-1.64245 18.53147,-4.66666 6.64594,-2.56667 13.91948,-4.66667 16.1634,-4.66667 9.32898,0 43.18641,-20.33667 54.54097,-32.76036 20.15092,-22.04832 36.92583,-55.52201 43.71901,-87.23964 3.55324,-16.59017 3.49682,-58.88761 -0.0925,-69.33333 -6.07861,-17.69016 -17.09127,-35.83136 -30.36609,-50.02219 -21.03039,-22.48156 -42.54595,-32.81732 -76.4474,-36.72424 -29.92171,-3.44828 -60.83288,8.3888 -85.46459,32.72768 -26.67535,26.35823 -37.96327,52.61043 -37.96097,88.28537 10e-4,17.92036 3.20176,31.23048 11.07345,46.05024 13.79869,25.97834 35.02975,38.06204 69.18532,39.37698 19.35744,0.74524 31.55887,-1.32627 44.55781,-7.56483 12.06407,-5.78988 18.11359,-11.82483 24.45079,-24.39191 6.56895,-13.02662 8.75519,-24.14741 7.5498,-38.40377 -0.85663,-10.13159 -6.37849,-39.91975 -8.79205,-47.42945 -1.70911,-5.31784 -8.24068,-11.45222 -16.59956,-15.59012 -6.25084,-3.09436 -7.45672,-3.23695 -19.33334,-2.28598 -15.12989,1.21147 -18.78502,2.04971 -26.66666,6.11552 -12.18291,6.28466 -12.06646,6.05243 -10.62575,21.19003 2.27084,23.85987 5.76845,33.46923 14.73445,40.48149 4.92558,3.85227 17.04023,8.18372 22.8913,8.18451 5.28517,7.1e-4 7.19254,3.20363 2.66666,4.47795 -8.62904,2.42958 -10.92948,2.27042 -17.88508,-1.23746 -19.47466,-9.82156 -22.7229,-15.96821 -25.794,-48.81018 -2.5162,-26.90787 -2.00145,-29.5936 7.1116,-37.10535 6.01168,-4.95533 12.76692,-7.24655 29.72571,-10.08227 11.32368,-1.89345 14.72028,-1.9962 21.00803,-0.63552 12.98493,2.80996 26.50105,10.3738 37.005,20.70862 9.0823,8.93605 9.68952,9.92985 13.66666,22.36749 2.64359,8.2672 4.16208,15.77795 4.16208,20.5864 0,4.16376 0.70546,10.98592 1.56767,15.16037 2.46813,11.94951 -1.6116,37.1471 -8.29581,51.23728 -7.1544,15.08135 -17.26287,28.83415 -27.24582,37.06855 -8.41854,6.944 -8.84557,7.11869 -23.63308,9.66828 -10.5141,1.81279 -21.09632,2.58243 -35.05962,2.54984 -19.56554,-0.0456 -20.31611,-0.15504 -34.55151,-5.036 -8.00333,-2.74413 -18.09033,-7.13905 -22.41556,-9.76648 -20.57608,-12.49928 -39.04221,-36.54412 -45.42716,-59.15085 -12.41249,-43.94807 1.23336,-93.05814 35.95591,-129.40183 25.38033,-26.56531 51.20284,-39.92673 82.22866,-42.54785 24.08031,-2.03436 47.39554,2.41964 69.54295,13.28506 16.01852,7.85862 25.50884,14.86411 40.94933,30.22771 24.59802,24.47551 39.5925,51.31147 47.29971,84.6534 3.18588,13.78229 3.12479,51.89136 -0.10973,68.43071 -4.2187,21.57205 -14.46862,44.06465 -28.37914,62.2756 -16.14478,21.13593 -42.79634,41.78326 -63.11325,48.8947 -6.22248,2.17803 -17.423,6.13 -24.89003,8.78218 -10.5226,3.73744 -16.97076,5.11046 -28.66666,6.10405 -8.29964,0.70507 -20.58867,1.91928 -27.30895,2.69827 -6.72027,0.77898 -17.71772,1.2322 -24.43877,1.00716 -10.39891,-0.34819 -12.47467,-0.0615 -13.92831,1.92417 -1.39172,1.90103 -3.65725,2.31104 -12.22788,2.213 -5.78583,-0.0661 -14.87877,-0.91051 -20.20655,-1.87627 z m 321.0202,-3.3404 c -2.56667,-1.435 -15.76667,-7.9461 -29.33333,-14.46913 -13.56667,-6.52303 -30.06667,-15.49032 -36.66667,-19.92733 -12.3194,-8.28203 -27.23147,-22.14618 -25.58789,-23.78975 0.79656,-0.79656 2.26366,-1.10815 7.99992,-1.69901 0.59328,-0.0611 0.74072,-0.65794 0.32766,-1.32628 -1.06637,-1.72543 9.02888,-3.1911 14.23134,-2.06619 5.59277,1.20932 15.70984,6.30711 25.02897,12.6116 4.03333,2.7286 10.02719,6.33112 13.31967,8.0056 12.4718,6.34289 26.57746,21.32284 34.15017,36.26687 4.94396,9.75644 4.38551,10.78546 -3.46984,6.39362 z m -387.6286,-19.3943 c -3.75036,-1.8689 -7.61817,-4.40854 -8.59512,-5.64366 -1.61987,-2.04793 -1.45753,-2.04224 1.84348,0.0647 1.99087,1.27068 4.60425,2.31032 5.80752,2.31032 1.20328,0 3.97041,1.5 6.14921,3.33333 5.04916,4.24859 3.40958,4.22823 -5.20509,-0.0647 z M 57.711721,473.02892 c 8.48238,-3.34228 8.94967,-3.71481 5.12527,-4.08604 -2.31444,-0.22465 -9.13072,0.52535 -15.14729,1.66667 -6.01657,1.14132 -13.12294,2.07359 -15.79193,2.07171 l -4.85271,-0.003 7.33333,-4.44901 c 4.03333,-2.44695 11.16152,-6.93582 15.84042,-9.97526 7.96978,-5.17724 8.31006,-5.59914 5.38772,-6.68018 -2.89862,-1.07227 -2.76902,-1.21966 1.83152,-2.08272 2.72298,-0.51083 5.99851,-2.01659 7.27894,-3.34612 1.28044,-1.32954 3.97455,-2.81246 5.98692,-3.29538 2.01237,-0.48292 3.51237,-1.61748 3.33333,-2.52125 -0.21358,-1.07817 1.50845,-1.65499 5.00782,-1.67744 3.79587,-0.0244 10.33007,-2.47543 22.666659,-8.50259 9.53334,-4.6576 18.53334,-9.61605 20,-11.01877 3.24762,-3.10604 27.34582,-18.44443 28.9781,-18.44443 0.64252,0 3.68529,-1.05549 6.76172,-2.34553 3.93922,-1.65183 9.10217,-2.339 17.45698,-2.32347 11.44336,0.0213 11.96267,0.15491 14.66458,3.77383 2.6252,3.51617 2.6547,3.83369 0.46986,5.05639 -3.68408,2.06172 -2.98124,5.38606 0.93114,4.40412 2.8356,-0.7117 3.42098,-0.23536 4.47486,3.64126 0.88638,3.26044 0.73104,5.02083 -0.57749,6.54494 -1.04289,1.21469 -1.30079,2.60596 -0.61788,3.33333 0.64467,0.68665 0.88296,3.09911 0.52953,5.36099 -0.79285,5.0743 -8.40553,10.40445 -19.0714,13.35318 -14.81045,4.09456 -23.66722,7.11823 -38.33921,13.0889 -19.53199,7.9484 -42.294759,14.78048 -55.660789,16.7062 -9.30725,1.34093 -17.47008,2.6595 -30,4.846 -1.83333,0.31992 0.86667,-1.07323 6,-3.0959 z M 745.04506,401.06919 c -3.93142,-1.83467 -12.54434,-2.32267 -54.66667,-3.09733 -55.23569,-1.01583 -59.05272,-1.51866 -76.66667,-10.09936 -10.0368,-4.88947 -22.58218,-15.38106 -21.70924,-18.15523 0.2941,-0.93459 2.59898,-2.78455 5.12198,-4.11101 5.89637,-3.10002 13.11953,-2.37115 29.95937,3.02313 9.15468,2.93251 17.26307,4.43323 29.00108,5.36757 8.96141,0.71334 24.23037,1.93108 33.93101,2.70611 31.21475,2.49388 51.27538,9.88375 57.18932,21.06719 1.62324,3.0696 2.85126,5.55761 2.72892,5.5289 -0.1224,-0.0287 -2.32244,-1.0322 -4.8891,-2.22997 z m -630,-83.1992 c -22.313029,-3.22475 -55.947259,-11.9118 -59.170299,-15.28251 -0.45634,-0.47724 4.2703,-0.5226 10.50363,-0.1008 8.98289,0.60786 10.22724,0.49524 6,-0.54305 -11.19783,-2.75037 -30.56558,-9.73691 -48.2693,-17.41219 -10.11855,-4.3868 -16.8526396,-7.66192 -14.9646296,-7.27802 1.8879996,0.38389 17.7879996,3.65378 35.3333296,7.26642 27.78153,5.72032 35.34385,6.75919 58.567269,8.0456 39.00949,2.16084 62.58464,1.96127 64.66666,-0.54742 0.91292,-1.1 3.65098,-2 6.08458,-2 2.43358,0 4.79553,-0.6 5.24876,-1.33334 2.00656,-3.24668 3.5224,-1.06508 2.68869,3.86959 -0.86987,5.14871 -0.80873,5.24244 5.86595,8.99445 8.08276,4.54355 9.10716,6.57148 5.34336,10.57787 -1.56423,1.66504 -2.49986,3.58428 -2.07916,4.26496 1.73724,2.81092 -58.47492,3.98503 -75.81884,1.47844 z m 471.53993,-25.49947 c -4.01371,-1.04489 -4.37077,-1.52094 -3.56783,-4.7568 0.49074,-1.97764 2.13511,-4.92734 3.65416,-6.5549 l 2.76192,-2.95922 -3.61422,-1.37412 c -1.98783,-0.75577 -4.77516,-1.37413 -6.1941,-1.37413 -4.9543,0 -2.7014,-3.86716 3.0868,-5.29857 3.11667,-0.77075 10.16667,-3.2634 15.66667,-5.53923 12.97647,-5.36948 17.06536,-6.0428 47.33333,-7.79439 28.45039,-1.6464 43.63902,-3.2621 57.33334,-6.09889 5.13333,-1.06337 12.33333,-1.89552 16,-1.84923 l 6.66666,0.0841 -4,1.86408 c -3.67417,1.71224 -16.87957,6.84116 -64,24.8573 -31.30656,11.96983 -61.9052,19.19455 -71.12673,16.79391 z M 198.49407,239.24919 c -7.98979,-3.99901 -14.07213,-8.49173 -23.015,-17 -12.91984,-12.29197 -39.86547,-42.55593 -31.36821,-35.23117 2.76484,2.38333 5.6061,4.33333 6.31393,4.33333 3.15984,0 0.76881,-3.86441 -6.33165,-10.23332 -9.44744,-8.47404 -8.75667,-10.57801 0.93852,-2.85859 9.944,7.91754 6.40872,2.49631 -6.24387,-9.57476 -5.76496,-5.5 -12.55764,-12.7 -15.09485,-16 l -4.6131,-6 7.12682,6.33334 c 3.91974,3.48333 7.51192,6.38333 7.9826,6.44444 0.47069,0.0611 2.11134,0.25388 3.64592,0.42838 1.53456,0.1745 8.92305,5.0745 16.41888,10.88888 29.02197,22.5119 40.1067,28.57163 52.26454,28.57163 6.42743,0 7.65236,0.39612 8.24612,2.66667 0.41244,1.57716 1.81868,2.66666 3.44194,2.66666 1.50952,0 3.36569,1.16056 4.12482,2.57902 1.91846,3.58466 1.76016,4.08765 -1.28642,4.08765 -4.24039,0 -3.09811,2.62247 2.08569,4.7884 6.38507,2.66785 6.00416,7.18371 -0.75236,8.91965 -6.16259,1.58335 -8.23519,3.45047 -7.25575,6.53643 0.44247,1.39405 0.40327,4.90935 -0.0871,7.81175 -1.14546,6.77992 -2.70908,6.76496 -16.54148,-0.15839 z m 331.32919,-20.43891 c -0.49447,-2.63574 -1.59919,-4.79226 -2.45492,-4.79226 -0.85574,0 0.4512,-1.67559 2.90429,-3.72352 4.459,-3.72254 4.4596,-3.72466 2.24873,-8 -1.46502,-2.83306 -3.21248,-4.29146 -5.17721,-4.32084 l -2.96576,-0.0444 3.14771,-2.62231 c 1.73125,-1.44227 4.28125,-2.62231 5.66666,-2.62231 1.38543,0 2.51896,-0.58617 2.51896,-1.3026 0,-2.22409 6.18739,-5.49318 13.70404,-7.24049 8.33267,-1.93699 15.94663,-7.44441 51.6293,-37.34513 36.85945,-30.8868 61.85546,-46.55032 74.53442,-46.70627 3.38654,-0.0416 6.09951,0.59625 6.4158,1.50856 0.30143,0.8694 -5.60716,6.2694 -13.1302,12 -48.14009,36.67025 -70.16724,57.9552 -89.50502,86.48919 l -6.98167,10.30185 -14.66667,5.70059 c -8.06666,3.13532 -17.43929,6.10818 -20.82805,6.60638 l -6.16137,0.9058 -0.89904,-4.79228 z M 134.32772,177.92334 c -1.44376,-2.6977 -1.39874,-2.70952 1.9531,-0.51332 3.92346,2.57076 4.24113,3.27466 1.47781,3.27466 -1.0742,0 -2.61811,-1.2426 -3.43091,-2.76134 z m 345.40371,-34.16327 c 0.0471,-12.13343 11.37133,-44.856911 26.67252,-77.075391 4.52757,-9.533329 9.95136,-20.971649 12.05285,-25.418479 4.1738,-8.831875 17.07079,-29.210098 17.9378,-28.343086 0.76924,0.769248 -24.89941,85.408605 -31.46788,103.761566 -4.50272,12.58108 -6.54025,16.41855 -11.3515,21.37927 -3.22507,3.32527 -7.66371,7.10919 -9.86363,8.40872 l -3.99987,2.36277 0.0197,-5.07537 z m -196.63925,-7.40872 c -10.10024,-12.61487 -19.66366,-31.0416 -27.36515,-52.727061 -5.56673,-15.67447 -6.2538,-18.29703 -3.91399,-14.93961 2.16346,3.10437 0.34164,-4.77558 -6.16217,-26.653399 -3.15889,-10.626046 -5.62432,-19.439207 -5.47872,-19.584807 0.1456,-0.1456 3.44573,6.821138 7.33363,15.481641 12.56536,27.990095 49.20426,90.749876 52.98224,90.754716 0.79362,0.001 2.10592,2.16197 2.9162,4.80212 1.71984,5.60376 0.36718,10.36039 -3.54102,12.452 -5.48312,2.93447 -7.8128,1.60292 -16.77102,-9.5856 z m 123.64642,2.66667 c -1.5242,-1.65 -3.72885,-5.32342 -4.89921,-8.16315 -1.63273,-3.96163 -2.52787,-4.83123 -3.84655,-3.73683 -1.2291,1.02007 -2.65318,0.96099 -4.99986,-0.20744 -2.77784,-1.3831 -3.52608,-3.16224 -4.87702,-11.5965 -3.18981,-19.914941 -4.75386,-61.91673 -3.41456,-91.696222 0.80904,-17.9892545 1.8393,-28.9621745 2.81046,-29.9333325 0.84326,-0.843258 1.62332,-2.763195 1.73345,-4.2665285 0.11013,-1.503334 0.62003,-0.03333 1.13308,3.2666665 0.72005,4.63144 1.01117,2.654632 1.27633,-8.6666665 l 0.34354,-14.666666 1.75362,11.999999 c 0.9645,6.6 3.87892,22.9214495 6.4765,36.269888 2.59757,13.348439 5.4418,30.898442 6.32048,39.000002 0.87869,8.101559 2.0716,14.730109 2.6509,14.730109 0.91538,0 3.81712,8.28527 3.83786,10.95815 0.004,0.52699 -0.89256,0.6128 -1.99256,0.19068 -1.53447,-0.58882 -2,0.28063 -2,3.73532 0,4.73108 4.05557,20.933281 7.37817,29.476171 2.18815,5.62601 2.61995,14.30635 0.71168,14.30635 -1.64783,0 -3.34131,5.23797 -2.90979,9 0.2498,2.17786 -0.34913,3 -2.18556,3 -1.39132,0 -3.77674,-1.35 -5.30096,-3 z M 385.25558,-17.981983 c 0,-1.833334 0.30264,-2.583334 0.67252,-1.666667 0.36988,0.916667 0.36988,2.416667 0,3.333333 -0.36988,0.916667 -0.67252,0.166667 -0.67252,-1.666666 z"
       style="fill:#ffff00;stroke-width:1.33333" />
  </g>
</svg>
