<?xml version="1.0" encoding="UTF-8" standalone="no"?>
<svg
   xmlns:dc="http://purl.org/dc/elements/1.1/"
   xmlns:cc="http://creativecommons.org/ns#"
   xmlns:rdf="http://www.w3.org/1999/02/22-rdf-syntax-ns#"
   xmlns:svg="http://www.w3.org/2000/svg"
   xmlns="http://www.w3.org/2000/svg"
   xmlns:sodipodi="http://sodipodi.sourceforge.net/DTD/sodipodi-0.dtd"
   xmlns:inkscape="http://www.inkscape.org/namespaces/inkscape"
   inkscape:version="1.0 (4035a4f, 2020-05-01)"
   sodipodi:docname="77dc435eca972493fe75b20c3749407e.jpg"
   viewBox="0 0 314.66666 314.66666"
   height="314.66666"
   width="314.66666"
   id="svg5991"
   version="1.1">
  <metadata
     id="metadata5997">
    <rdf:RDF>
      <cc:Work
         rdf:about="">
        <dc:format>image/svg+xml</dc:format>
        <dc:type
           rdf:resource="http://purl.org/dc/dcmitype/StillImage" />
        <dc:title></dc:title>
      </cc:Work>
    </rdf:RDF>
  </metadata>
  <defs
     id="defs5995" />
  <sodipodi:namedview
     inkscape:current-layer="g5999"
     inkscape:window-maximized="0"
     inkscape:window-y="24"
     inkscape:window-x="0"
     inkscape:cy="157.33333"
     inkscape:cx="157.33333"
     inkscape:zoom="1.881356"
     showgrid="false"
     id="namedview5993"
     inkscape:window-height="776"
     inkscape:window-width="1280"
     inkscape:pageshadow="2"
     inkscape:pageopacity="0"
     guidetolerance="10"
     gridtolerance="10"
     objecttolerance="10"
     borderopacity="1"
     bordercolor="#666666"
     pagecolor="#ffffff" />
  <g
     id="g5999"
     inkscape:label="Image"
     inkscape:groupmode="layer">
    <path
       id="path6003"
       d="m 142.01298,283.83061 c -7.3262,-15.43807 -13.75708,-28.33912 -14.29087,-28.66903 -0.53379,-0.32989 -6.53963,2.33777 -13.34632,5.92816 -46.237006,24.38908 -49.042458,25.74804 -49.042458,23.75619 0,-1.78295 9.993385,-63.41911 11.17911,-68.94935 0.37905,-1.7679 -4.783386,-2.91225 -32.36406,-7.17408 -18.048277,-2.78886 -33.6153,-5.4943 -34.5933847,-6.01208 -1.223208,-0.64754 5.5447167,-7.99536 21.6808497,-23.5385 L 54.695032,156.57482 31.264207,134.10405 C 18.377253,121.74513 8.3208704,111.20776 8.9166905,110.68767 c 0.5958201,-0.52008 15.9928265,-3.09709 34.2155685,-5.72668 18.222742,-2.62959 33.348767,-4.997575 33.613389,-5.262197 0.4372,-0.4372 -9.250251,-63.878588 -10.592052,-69.36546 -0.904084,-3.696959 1.856193,-2.8371 16.579437,5.164693 32.893377,17.8769 45.202197,24.122839 45.994067,23.339034 0.46512,-0.460384 7.1248,-13.737061 14.7993,-29.503727 L 157.48001,0.66666665 172.40668,31.053233 C 186.6539,60.056676 187.45472,61.356677 190,59.613635 c 1.46666,-1.004391 15.80588,-8.584245 31.86492,-16.844123 l 29.19826,-15.017958 -0.84481,5.790889 c -0.46466,3.18499 -3.25688,19.237868 -6.20498,35.673064 -2.94809,16.435195 -5.0834,30.158938 -4.74513,30.497203 0.33827,0.33827 15.29776,2.79776 33.24332,5.46554 17.94555,2.66778 32.97532,5.19754 33.39948,5.6217 0.42416,0.42416 -9.80204,11.16129 -22.72491,23.86027 l -23.4961,23.08907 23.49024,23.34564 c 12.91962,12.84011 23.31544,23.52044 23.10178,23.73409 -0.21364,0.21364 -15.30556,2.50556 -33.53758,5.09315 -18.23204,2.58759 -33.44395,4.99951 -33.80426,5.35981 -0.63954,0.63955 10.06606,66.31433 11.35916,69.68412 0.35892,0.93531 0.20176,1.70056 -0.34921,1.70056 -0.55099,0 -14.70216,-7.2 -31.44705,-16 -16.74491,-8.8 -30.91925,-16 -31.49857,-16 -0.57931,0 -7.51362,12.9 -15.40955,28.66667 -7.89595,15.76666 -14.78497,28.64413 -15.30897,28.61658 -0.52399,-0.0276 -6.94687,-12.68122 -14.27306,-28.1193 z m 26.71899,-9.92523 c 6.33779,-12.88536 11.31583,-23.61563 11.06231,-23.845 -0.25352,-0.22939 -5.43411,-2.90516 -11.5124,-5.94615 l -11.05146,-5.52908 -11.88108,6.21822 -11.88109,6.21821 3.45809,6.82253 c 1.90196,3.7524 6.93238,14.17255 11.17871,23.15588 4.24633,8.98334 8.03179,16.33334 8.41213,16.33334 0.38034,0 5.87699,-10.54258 12.21479,-23.42795 z M 99.741817,261.33333 c 13.311583,-6.96667 24.215333,-13.05438 24.230533,-13.52823 0.0152,-0.47385 -2.90465,-7.14117 -6.48857,-14.81625 l -6.51622,-13.95468 -13.150447,-2.04292 c -7.232747,-1.1236 -13.376835,-1.82991 -13.653529,-1.56956 -0.276694,0.26035 -2.500062,12.04697 -4.940816,26.19249 -2.440755,14.14553 -4.759011,27.41736 -5.151682,29.49296 -0.392669,2.07559 -0.223042,3.57559 0.376948,3.33333 0.599992,-0.24226 11.982195,-6.14048 25.293783,-13.10714 z m 141.200043,10.33333 c -0.37431,-1.65 -2.63663,-14.7 -5.02736,-29 -2.39074,-14.3 -4.46432,-26.16478 -4.60794,-26.36617 -0.4395,-0.61628 -25.7234,2.71944 -27.05791,3.56976 -0.68745,0.43803 -4.30349,6.89339 -8.03564,14.34525 l -6.78573,13.54884 24.95302,13.31344 c 13.72416,7.3224 25.46807,13.37543 26.09757,13.45117 0.6295,0.0757 0.8383,-1.21229 0.46399,-2.86229 z m -98.96392,-32.62572 c 5.51214,-2.72747 10.02206,-5.42746 10.02206,-6 0,-0.57252 -1.65,-1.04806 -3.66667,-1.05677 -5.02557,-0.0217 -15.86551,-3.03228 -22.50298,-6.24979 l -5.50299,-2.66756 4.04743,8.79992 c 3.86261,8.39805 6.04824,12.13325 7.09974,12.13325 0.26474,0 4.99128,-2.23157 10.50341,-4.95905 z m 46.75754,-4.51092 c 2.62296,-5.20849 4.58049,-9.65618 4.35009,-9.88377 -0.2304,-0.22759 -3.97824,1.08855 -8.32855,2.92472 -4.3503,1.83619 -11.1003,3.66783 -15,4.07031 -3.89969,0.40249 -7.07586,1.09785 -7.05816,1.54525 0.0332,0.84005 18.53531,10.64958 20.28438,10.75449 0.54077,0.0324 3.12929,-4.20252 5.75224,-9.411 z M 168,225.3017 c 13.02436,-2.021 29.16826,-10.44718 38.66145,-20.17904 26.73237,-27.40445 26.43968,-69.19425 -0.67677,-96.62472 C 170.4061,72.507349 109.89045,86.153741 92.490097,134.09117 76.840425,177.20554 109.31596,224.45878 156,226.50072 c 1.83333,0.0801 7.23333,-0.45936 12,-1.19902 z m 60.84666,-16.60285 c 1.44035,-0.47349 0.87324,-6.35869 -1.60913,-16.69885 l -0.80024,-3.33334 -2.07613,4 c -1.14188,2.2 -4.60146,7.33991 -7.68795,11.42203 l -5.6118,7.42203 8.13596,-1.15719 c 4.47477,-0.63645 8.81696,-1.38107 9.64929,-1.65468 z m -128.50304,-2.08281 c -2.022327,-2.22786 -5.562155,-7.39063 -7.86629,-11.47284 l -4.189335,-7.4222 -1.612486,9.55989 c -0.886868,5.25795 -1.310317,9.86208 -0.941,10.2314 0.667657,0.66765 11.466072,2.69801 15.942441,2.99755 1.90358,0.12733 1.65323,-0.60374 -1.33333,-3.8938 z m 166.98971,-2.71012 c 12.46666,-1.60499 23.10568,-3.30942 23.64224,-3.78762 0.53657,-0.4782 -7.41519,-9.24416 -17.67055,-19.47989 l -18.64613,-18.61044 -10.8652,10.8652 -10.8652,10.8652 1.6726,10.36837 c 2.2192,13.75678 2.40557,14.13571 6.56796,13.35411 1.92369,-0.36123 13.69761,-1.96995 26.16428,-3.57493 z m -187.159142,-8.5278 1.968557,-11.28855 -11.404706,-11.31565 -11.404707,-11.31567 -19.252513,18.38432 -19.252513,18.38432 23.91918,3.66444 c 13.155549,2.01544 24.519179,3.86701 25.252513,4.11461 0.733333,0.24762 2.879599,0.49756 4.769482,0.55546 3.282292,0.10053 3.524293,-0.40019 5.404707,-11.18328 z m 2.245284,-28.04479 c -1.267544,-7.75593 -0.615258,-22.20105 1.218276,-26.97917 0.495137,-1.29031 -3.714604,1.83365 -9.354982,6.94212 l -10.25523,9.28812 9.614041,9.63554 c 5.287723,5.29955 9.720081,9.51806 9.849684,9.37447 0.1296,-0.1436 -0.352701,-3.86108 -1.071789,-8.26108 z m 158.661878,-18.89395 -8.89481,-8.89481 0.70328,12.56105 c 0.38682,6.90858 0.0852,15.21558 -0.6704,18.46002 l -1.37369,5.89897 9.56521,-9.56521 9.56521,-9.56522 z M 82.133206,128.15787 c -0.330978,-1.18683 -1.303344,-6.52437 -2.160812,-11.8612 l -1.559033,-9.70332 -4.206681,0.69849 c -9.308395,1.5456 -50.235285,7.37537 -51.831078,7.383 -0.939914,0.005 6.980349,8.34226 17.600586,18.52837 l 19.309521,18.5202 11.724639,-10.70384 c 7.757854,-7.08241 11.521038,-11.4339 11.122858,-12.8617 z m 192.639444,5.50879 c 10.49516,-10.16091 18.10973,-18.49379 17.08189,-18.6933 -5.73253,-1.11269 -53.90919,-7.97555 -54.19,-7.71947 -0.18449,0.16824 -1.31095,5.56477 -2.50321,11.99228 l -2.16777,11.68638 10.47193,10.53373 C 249.22506,147.25982 254.36466,152 254.88682,152 c 0.52217,0 9.47079,-8.25 19.88583,-18.33334 z m -175.3538,-25.08239 4.34843,-5.41572 -8.883643,1.24903 c -4.886002,0.68697 -9.094459,1.43487 -9.352127,1.66199 -0.257668,0.22713 0.25726,4.71568 1.144285,9.97456 l 1.612775,9.56161 3.390927,-5.80787 c 1.86501,-3.19433 5.347718,-8.24495 7.739353,-11.2236 z m 129.53341,7.74906 c 0.76619,-4.95 1.01538,-9.40887 0.55374,-9.9086 -0.46163,-0.49973 -4.64342,-1.33335 -9.29284,-1.85249 l -8.4535,-0.94388 5.46746,7.18582 c 3.0071,3.9522 6.20764,8.83582 7.11232,10.85248 0.90466,2.01667 1.99921,3.66667 2.4323,3.66667 0.4331,0 1.41432,-4.05 2.18052,-9 z m -126.11221,-19.895172 8.00416,-0.836601 7.3262,-14.608027 c 4.02941,-8.034414 7.13947,-14.779307 6.91123,-14.98865 -2.16302,-1.983971 -49.842888,-26.700185 -50.131346,-25.987006 -0.21067,0.52086 1.73933,13.579685 4.333334,29.01961 2.594004,15.439925 4.71637,28.499509 4.71637,29.021297 0,0.521788 2.438075,0.558842 5.417944,0.08235 2.979869,-0.4765 9.019819,-1.242834 13.422108,-1.702964 z M 234.6924,82.333332 c 1.63627,-8.983334 4.04214,-22.033333 5.34635,-29 1.30422,-6.966666 2.22534,-12.820358 2.04695,-13.008205 -0.17839,-0.187845 -2.97064,1.059116 -6.20502,2.771027 -3.23438,1.71191 -14.28068,7.494072 -24.54735,12.849246 -10.26667,5.355176 -19.12697,10.148519 -19.68956,10.651873 -1.22213,1.093442 10.20497,26.051969 12.65217,27.63426 1.74644,1.129206 17.57732,3.953061 23.89606,4.262494 3.47808,0.170324 3.56518,-0.04625 6.5004,-16.160695 z m -91.97139,0.553094 10.42833,-2.243396 -10.79789,-5.653856 c -5.93884,-3.109621 -10.9271,-5.504302 -11.08503,-5.321515 -0.72453,0.838553 -9.93309,19.682091 -9.93309,20.326152 0,0.399878 2.46585,-0.530933 5.47967,-2.068469 3.01382,-1.537534 10.17242,-3.805048 15.90801,-5.038916 z M 189.23145,80.8672 c -2.28148,-4.875386 -4.68156,-9.194012 -5.33352,-9.596948 -0.65196,-0.402936 -5.57357,1.579324 -10.93692,4.405021 l -9.75155,5.137631 10.06194,2.326718 c 5.53406,1.279695 12.16193,3.388234 14.7286,4.685641 2.56666,1.297408 4.82706,2.257078 5.02312,2.132599 0.19605,-0.12448 -1.5102,-4.215276 -3.79167,-9.090662 z M 169.67509,40.657932 c -6.40185,-12.828529 -11.94769,-23.321228 -12.32408,-23.31711 -0.75496,0.0083 -22.88293,45.603386 -22.34988,46.052365 0.18271,0.15389 5.38312,3.008714 11.55647,6.344054 l 11.22426,6.064253 11.76648,-5.909481 11.76648,-5.909481 z"
       style="fill:#000000;stroke-width:1.33333" />
  </g>
</svg>
